<?xml version="1.0" standalone="no"?>
<!DOCTYPE svg PUBLIC "-//W3C//DTD SVG 20010904//EN"
 "http://www.w3.org/TR/2001/REC-SVG-20010904/DTD/svg10.dtd">
<svg version="1.0" xmlns="http://www.w3.org/2000/svg"
 width="225.000000pt" height="225.000000pt" viewBox="0 0 225.000000 225.000000"
 preserveAspectRatio="xMidYMid meet">

<g transform="translate(0.000000,225.000000) scale(0.100000,-0.100000)"
fill="#000000" stroke="none">
<path d="M1090 2135 c-10 -12 -11 -55 -5 -185 9 -218 -2 -466 -22 -486 -17
-16 -70 -19 -107 -4 -22 8 -24 13 -19 47 7 46 19 61 35 45 18 -18 56 -15 62 6
4 15 11 492 7 517 -1 6 -8 1 -16 -9 -12 -16 -15 -63 -15 -247 0 -125 -4 -230
-9 -233 -5 -3 -14 1 -21 9 -10 12 -16 13 -27 4 -10 -9 -18 -7 -34 7 -12 11
-31 19 -43 19 -14 0 -22 7 -24 23 -3 17 1 22 20 22 30 0 84 33 98 60 13 25 8
136 -7 151 -18 18 -28 -12 -28 -86 0 -66 -1 -70 -28 -83 -47 -23 -57 -11 -57
66 0 74 -5 88 -27 71 -8 -8 -13 -35 -13 -80 l0 -69 -32 0 c-17 0 -40 7 -50 17
-17 15 -18 15 -19 -3 -5 -82 13 -142 61 -206 38 -49 39 -53 20 -56 -24 -4 -50
14 -50 34 0 8 -4 14 -9 14 -5 0 -16 2 -23 5 -12 5 -14 -6 -10 -57 5 -72 19
-101 62 -123 17 -9 42 -34 56 -57 26 -40 26 -42 9 -71 -19 -33 -9 -54 22 -43
14 6 15 9 4 16 -8 4 -11 15 -8 23 10 26 87 -19 122 -72 36 -54 94 -89 164 -98
95 -11 181 56 197 155 4 23 9 42 12 42 2 0 20 -9 39 -21 18 -12 40 -19 47 -16
15 6 66 93 66 113 0 7 -9 18 -21 24 -17 9 -29 6 -69 -20 -27 -18 -68 -34 -91
-37 -45 -6 -43 3 -23 -91 13 -62 -73 -110 -169 -95 -45 7 -100 42 -105 66 -5
27 26 20 65 -13 41 -37 53 -31 83 38 29 65 26 80 -15 88 -28 5 -35 11 -35 30
0 25 21 45 28 26 2 -8 33 -12 92 -12 77 0 94 4 141 28 34 17 65 44 84 71 27
39 30 52 35 144 l5 102 20 -65 c21 -69 27 -202 12 -272 -11 -50 9 -50 30 0 21
50 22 198 0 278 -8 33 -27 86 -41 118 -23 52 -27 56 -46 46 -19 -10 -20 -20
-20 -158 0 -161 -6 -184 -35 -152 -15 16 -31 20 -89 20 l-71 1 25 20 c18 16
32 19 58 14 31 -6 34 -4 26 12 -13 27 -22 405 -10 421 6 9 6 16 -1 20 -6 4
-17 21 -26 38 -28 55 -100 85 -111 47 -9 -35 -20 -429 -14 -508 3 -26 -1 -30
-23 -33 -49 -6 -50 5 -49 319 0 171 4 297 10 303 6 6 3 14 -8 22 -22 17 -27
17 -42 -1z m212 -346 c2 -112 0 -150 -11 -162 -7 -9 -17 -14 -22 -11 -10 6
-12 327 -2 338 4 3 13 1 19 -6 9 -9 14 -58 16 -159z m-493 -142 c12 -30 2
-119 -13 -114 -11 3 -49 74 -61 115 -6 20 -3 22 30 22 28 0 37 -5 44 -23z
m489 -104 c4 -24 -26 -40 -34 -18 -8 21 3 47 19 43 6 -3 13 -14 15 -25z m-411
-24 c2 -8 -1 -21 -7 -29 -13 -20 -28 -4 -37 40 l-6 35 24 -16 c13 -9 25 -23
26 -30z m301 -136 l-33 -34 -17 22 c-27 33 -22 43 30 59 61 19 68 3 20 -47z
m-415 26 c40 -22 51 -59 17 -59 -11 0 -26 12 -35 30 -23 44 -20 49 18 29z
m300 -6 c11 -6 9 -77 -4 -110 -14 -37 -58 -83 -81 -83 -17 0 -22 10 -19 38 1
6 -3 12 -9 12 -5 0 -10 -6 -10 -14 0 -7 -7 -20 -16 -27 -14 -11 -20 -9 -45 19
-16 18 -29 36 -29 41 0 5 24 11 53 14 28 3 62 9 75 12 21 7 22 6 12 -19 -13
-35 -13 -36 5 -36 8 0 19 17 25 43 6 23 14 51 17 61 4 15 2 18 -13 11 -30 -11
-158 -32 -171 -28 -19 7 -25 40 -13 63 11 21 16 21 113 14 56 -3 105 -8 110
-11z m292 -4 c19 -31 -78 -76 -136 -64 -36 8 -33 23 11 53 35 23 113 31 125
11z m83 -136 c5 -18 -45 -40 -60 -25 -8 8 -8 15 2 27 15 18 51 16 58 -2z
m-303 -63 c0 -23 -32 -23 -45 0 -11 20 -9 21 17 18 17 -2 28 -9 28 -18z"/>
<path d="M882 1374 c4 -21 22 -23 26 -1 2 10 -3 17 -13 17 -10 0 -15 -6 -13
-16z"/>
<path d="M935 1381 c-7 -12 12 -24 25 -16 11 7 4 25 -10 25 -5 0 -11 -4 -15
-9z"/>
<path d="M1160 2098 c-9 -334 -9 -580 -1 -568 23 33 30 93 32 275 1 105 5 209
9 232 7 43 -1 63 -27 63 -7 0 -13 -1 -13 -2z"/>
<path d="M637 2067 c-9 -6 -23 -25 -32 -42 -10 -20 -15 -24 -15 -12 0 11 -4
15 -11 11 -8 -4 -10 -26 -6 -64 4 -37 2 -61 -5 -68 -7 -7 -8 -12 -2 -12 5 0
15 5 21 11 8 8 13 8 17 0 4 -6 26 -11 49 -11 31 0 38 3 27 10 -13 9 -13 12 0
23 8 7 26 25 40 41 l25 28 -30 -8 c-29 -7 -30 -7 -12 13 9 11 14 23 10 27 -5
5 8 21 26 37 l35 29 -32 -10 c-18 -5 -48 -18 -67 -30 -37 -23 -42 -21 -24 12
13 25 8 32 -14 15z"/>
<path d="M1490 2070 c0 -5 9 -12 20 -15 11 -3 23 -18 27 -33 3 -15 13 -33 22
-40 14 -12 11 -13 -18 -8 l-35 6 25 -27 c13 -15 31 -33 39 -40 13 -11 13 -14
0 -23 -11 -8 3 -10 51 -8 42 2 65 7 61 13 -4 6 -5 37 -3 70 3 53 2 58 -13 46
-14 -12 -16 -11 -16 6 0 19 -18 40 -48 58 -11 6 -12 3 -3 -13 19 -35 13 -44
-16 -24 -35 24 -93 44 -93 32z"/>
<path d="M881 1966 c-8 -10 -9 -16 -1 -21 13 -8 30 3 30 21 0 18 -14 18 -29 0z"/>
<path d="M1374 1884 c3 -9 6 -95 7 -192 1 -169 1 -175 16 -142 11 24 18 82 22
183 5 133 4 150 -11 158 -26 14 -41 11 -34 -7z"/>
<path d="M870 1847 c0 -54 22 -80 40 -48 9 17 8 21 -5 21 -10 0 -15 10 -15 29
0 17 -4 33 -10 36 -6 4 -10 -11 -10 -38z"/>
<path d="M527 1852 c-9 -10 -26 -40 -39 -67 l-22 -50 -6 35 c-6 35 -6 35 -19
11 -7 -13 -11 -36 -9 -53 4 -21 1 -27 -9 -24 -7 3 -13 3 -13 0 0 -12 24 -51
48 -76 16 -17 22 -33 18 -45 -5 -16 -5 -16 9 1 8 10 32 27 55 37 22 10 40 23
40 29 0 6 -5 8 -11 5 -11 -7 -6 64 7 101 7 17 5 17 -17 -3 l-24 -22 -3 51 c-2
28 2 56 9 64 18 22 5 27 -14 6z"/>
<path d="M1715 1838 c11 -23 15 -43 10 -55 -4 -10 -7 -27 -6 -38 3 -18 1 -18
-24 5 l-26 25 10 -27 c5 -14 10 -35 9 -45 0 -10 3 -26 7 -36 6 -14 3 -16 -11
-11 -14 4 -11 -2 9 -20 15 -14 36 -26 46 -26 10 0 23 -10 30 -22 l11 -23 -6
23 c-3 12 -1 22 5 22 12 0 61 69 61 87 0 7 -6 10 -13 7 -10 -3 -12 4 -9 30 2
19 -1 43 -7 53 -9 16 -10 15 -11 -8 0 -44 -12 -41 -35 9 -12 26 -32 56 -45 67
l-22 20 17 -37z"/>
<path d="M945 1660 c-8 -13 4 -32 16 -25 12 8 12 35 0 35 -6 0 -13 -4 -16 -10z"/>
<path d="M436 1520 c-9 -22 -16 -57 -16 -76 0 -31 -2 -35 -15 -24 -8 7 -15 20
-15 28 0 12 -3 13 -11 5 -13 -13 -3 -83 11 -83 6 0 10 -5 10 -11 0 -6 -7 -9
-15 -5 -8 3 -15 1 -15 -3 0 -13 56 -58 80 -66 11 -4 21 -16 21 -28 1 -18 2
-19 6 -4 3 10 22 35 44 54 40 37 51 57 23 46 -12 -4 -15 0 -14 18 1 13 2 42 1
64 l-2 40 -24 -30 -25 -30 0 27 c0 14 -6 28 -12 30 -8 3 -12 21 -12 46 1 23 0
42 -1 42 -2 0 -10 -18 -19 -40z"/>
<path d="M1797 1523 c4 -34 2 -44 -11 -49 -9 -3 -16 -17 -16 -33 l0 -26 -20
30 -20 30 0 -32 c0 -17 -4 -34 -9 -37 -4 -3 -6 -17 -3 -31 4 -21 1 -24 -13
-19 -15 6 -16 4 -6 -14 6 -12 25 -32 41 -44 17 -12 30 -27 30 -34 0 -7 4 -15
9 -18 5 -3 8 0 7 8 0 7 21 29 48 48 49 34 73 64 42 52 -17 -7 -21 6 -7 22 10
10 14 37 11 69 -1 19 -2 19 -12 -2 -17 -35 -26 -28 -38 31 -6 29 -17 62 -25
72 -12 17 -13 14 -8 -23z"/>
<path d="M545 1224 c-76 -42 -84 -44 -162 -44 l-82 0 15 -42 c52 -148 196
-331 334 -425 140 -95 261 -134 440 -140 155 -6 233 7 354 57 204 85 383 263
473 469 l33 76 -85 3 c-79 3 -90 6 -162 47 l-78 44 -29 -57 c-39 -77 -154
-191 -233 -231 -161 -81 -324 -79 -484 5 -82 43 -192 154 -229 231 l-25 52
-80 -45z m101 -26 c35 -68 134 -171 206 -213 258 -152 589 -63 742 199 l38 65
57 -31 c89 -49 88 -48 53 -110 -191 -329 -573 -460 -901 -308 -87 41 -180 109
-238 174 -48 55 -123 171 -123 190 0 8 108 74 137 85 2 1 15 -22 29 -51z
m-151 -93 c155 -278 462 -429 755 -371 211 42 400 182 510 379 l32 57 69 0
c38 0 69 -2 69 -5 0 -18 -60 -132 -104 -199 -214 -321 -608 -462 -956 -343
-216 74 -389 223 -499 429 -21 40 -42 83 -46 96 -6 21 -4 22 63 22 l70 0 37
-65z"/>
<path d="M628 1124 c-4 -4 2 -18 12 -32 22 -28 19 -42 -4 -23 -8 7 -21 9 -27
5 -9 -5 -5 -10 11 -16 21 -8 22 -10 6 -26 -24 -27 -6 -36 21 -10 27 25 44 17
18 -8 -16 -16 -16 -19 -1 -30 10 -7 14 -18 9 -29 -7 -20 6 -15 40 13 9 8 20
12 24 8 4 -4 3 -10 -3 -14 -14 -9 -25 -52 -14 -52 5 0 10 6 13 13 3 7 9 2 14
-12 l10 -24 16 23 c22 32 33 19 12 -14 -10 -14 -13 -26 -8 -26 5 0 16 11 23
25 8 14 20 23 27 21 9 -4 8 6 -4 37 -20 51 -28 62 -19 24 6 -25 5 -27 -11 -18
-21 11 -109 102 -139 144 -11 15 -23 25 -26 21z m82 -130 c0 -16 -16 -19 -25
-4 -8 13 4 32 16 25 5 -4 9 -13 9 -21z m62 -49 c0 -5 -5 -11 -11 -13 -6 -2
-11 4 -11 13 0 9 5 15 11 13 6 -2 11 -8 11 -13z"/>
<path d="M1559 1056 c-30 -40 -37 -45 -63 -40 -27 6 -28 5 -21 -24 6 -31 6
-31 -42 -34 -41 -3 -48 -6 -46 -23 2 -18 -3 -20 -35 -17 -39 4 -36 -12 3 -20
12 -3 -3 -9 -37 -17 -63 -13 -83 -37 -22 -25 31 6 35 4 32 -12 -2 -14 4 -20
26 -22 27 -3 28 -2 22 25 l-7 28 22 -25 c13 -16 19 -19 15 -7 -16 46 -16 50
-1 25 20 -35 29 -36 21 -2 -7 26 7 54 27 54 7 0 7 -4 -1 -12 -17 -17 -15 -35
4 -42 12 -5 14 -1 8 16 -6 20 -5 21 10 9 18 -15 22 -1 5 16 -7 7 -8 20 -5 30
7 17 8 17 20 1 19 -26 29 -22 15 5 -12 22 -12 22 10 3 11 -11 21 -14 21 -9 0
6 -7 16 -15 23 -14 12 -13 15 5 32 12 11 24 17 28 13 4 -4 1 -10 -5 -12 -15
-5 -18 -33 -4 -33 6 0 12 4 16 10 3 5 13 6 23 3 13 -5 11 0 -7 20 -13 15 -20
31 -16 38 6 9 11 8 21 -6 11 -15 15 -15 34 -2 19 13 19 15 4 28 -9 7 -19 22
-23 32 -6 16 -12 13 -42 -27z m46 -7 c11 -17 -1 -21 -15 -4 -8 9 -8 15 -2 15
6 0 14 -5 17 -11z m-177 -115 c-9 -9 -21 -13 -27 -9 -16 10 -3 25 22 25 20 0
20 -1 5 -16z m-68 -84 c0 -5 -4 -10 -10 -10 -5 0 -10 5 -10 10 0 6 5 10 10 10
6 0 10 -4 10 -10z"/>
<path d="M972 867 c11 -8 15 -21 11 -35 -4 -17 -1 -22 15 -22 14 0 22 -8 24
-22 3 -18 6 -15 12 15 10 47 31 50 23 2 -3 -19 -2 -35 3 -35 4 0 11 16 14 35
5 26 12 35 26 35 11 0 20 4 20 9 0 4 -26 11 -57 14 -32 4 -69 9 -83 13 -23 5
-23 4 -8 -9z m58 -28 c0 -5 -7 -9 -15 -9 -8 0 -15 7 -15 15 0 9 6 12 15 9 8
-4 15 -10 15 -15z"/>
<path d="M1290 833 c-8 -13 -13 -14 -16 -5 -3 6 -10 12 -15 12 -6 0 -5 -9 1
-21 11 -20 45 -23 45 -4 0 6 4 16 8 23 5 6 4 12 -2 12 -5 0 -15 -8 -21 -17z"/>
<path d="M1816 1125 c-3 -9 0 -15 8 -15 8 0 22 -3 32 -7 14 -5 13 -2 -4 15
-26 26 -28 26 -36 7z"/>
<path d="M418 1109 c-21 -11 -23 -34 -6 -45 8 -5 9 -2 5 9 -4 11 2 22 16 32
24 17 12 20 -15 4z"/>
<path d="M1803 1076 c4 -11 1 -16 -10 -16 -14 0 -14 -2 3 -15 25 -19 35 -19
28 0 -5 11 -2 13 12 8 24 -9 10 13 -18 28 -18 10 -20 9 -15 -5z"/>
<path d="M445 1050 c-15 -16 -16 -23 -6 -33 10 -9 11 -8 5 7 -6 16 -4 18 10
13 10 -4 15 -3 11 3 -3 6 -1 10 4 10 6 0 11 -5 11 -12 0 -6 2 -9 5 -6 7 7 -5
38 -15 38 -4 0 -15 -9 -25 -20z"/>
<path d="M1762 1008 c4 -27 48 -39 48 -14 0 18 -16 30 -24 17 -4 -5 -1 -12 4
-14 6 -3 5 -4 -2 -3 -7 2 -12 11 -12 20 1 9 -3 16 -8 16 -5 0 -8 -10 -6 -22z"/>
<path d="M480 998 c-14 -5 -20 -12 -14 -16 6 -4 13 -12 15 -19 2 -6 11 -1 22
12 20 28 12 36 -23 23z"/>
<path d="M1726 971 c-6 -9 33 -45 41 -38 2 3 -5 15 -16 26 -11 11 -22 17 -25
12z"/>
<path d="M517 948 c-19 -20 -15 -38 7 -38 8 0 19 7 26 16 11 12 11 17 -1 28
-12 11 -17 10 -32 -6z m23 -13 c-7 -9 -15 -13 -17 -11 -7 7 7 26 19 26 6 0 6
-6 -2 -15z"/>
<path d="M1680 913 c0 -5 8 -17 18 -26 14 -13 21 -14 30 -5 7 7 12 17 12 22 0
6 -5 5 -12 -2 -9 -9 -16 -8 -30 5 -10 9 -18 12 -18 6z"/>
<path d="M597 862 c-20 -22 -23 -39 -4 -23 17 13 27 5 20 -17 -3 -10 4 -6 16
8 16 20 17 26 5 28 -8 2 -12 8 -9 13 11 16 -12 9 -28 -9z"/>
<path d="M1594 835 c-7 -18 12 -45 32 -45 17 0 18 32 2 48 -16 16 -27 15 -34
-3z m31 -16 c11 -17 -1 -21 -15 -4 -8 9 -8 15 -2 15 6 0 14 -5 17 -11z"/>
<path d="M648 815 c-13 -17 -14 -25 -5 -34 17 -17 31 -13 17 4 -9 11 -9 15 -1
15 7 0 9 5 5 12 -5 8 -2 9 9 5 10 -3 17 -2 17 2 0 20 -26 17 -42 -4z"/>
<path d="M1552 808 c-6 -9 -4 -19 9 -32 11 -11 19 -14 19 -8 0 6 -4 13 -10 17
-5 3 -7 12 -3 20 6 18 -1 19 -15 3z"/>
<path d="M751 744 c-6 -15 -9 -29 -6 -32 3 -3 5 0 5 6 0 7 7 12 16 12 8 0 12
5 9 10 -3 6 -1 10 5 10 6 0 8 5 5 10 -10 17 -21 11 -34 -16z"/>
<path d="M1444 738 c-4 -6 1 -17 10 -24 13 -9 14 -13 4 -17 -9 -4 -7 -6 4 -6
26 -1 33 20 9 26 -12 3 -21 10 -21 15 0 5 5 6 10 3 6 -3 10 -1 10 4 0 15 -17
14 -26 -1z"/>
<path d="M801 714 c-10 -23 -9 -26 4 -21 10 4 15 0 16 -11 0 -9 5 -4 9 12 15
49 -8 65 -29 20z"/>
<path d="M860 700 c-12 -23 -6 -40 15 -40 16 0 26 25 19 45 -8 21 -21 19 -34
-5z m24 -15 c-6 -16 -24 -21 -24 -7 0 11 11 22 21 22 5 0 6 -7 3 -15z"/>
<path d="M1390 705 c0 -8 7 -15 15 -15 8 0 15 -4 15 -10 0 -5 -8 -7 -17 -3
-15 5 -16 3 -5 -8 10 -10 14 -11 25 0 10 10 8 15 -6 26 -13 10 -15 14 -5 18 8
4 7 6 -4 6 -10 1 -18 -6 -18 -14z"/>
<path d="M1342 701 c-9 -5 -11 -17 -6 -34 7 -30 12 -32 34 -16 12 9 12 10 -4
5 -13 -5 -17 -2 -12 9 3 8 0 15 -7 15 -8 0 -7 4 3 10 8 5 12 11 9 14 -2 3 -10
1 -17 -3z"/>
<path d="M912 672 c-6 -19 -7 -32 -1 -32 5 0 9 5 9 10 0 6 5 10 10 10 6 0 10
-7 10 -17 0 -22 6 -14 14 21 6 23 4 27 -8 23 -8 -3 -16 -1 -19 6 -2 6 -9 -3
-15 -21z"/>
<path d="M1297 673 c6 -16 5 -16 -10 -4 -15 12 -17 11 -17 -5 0 -11 5 -26 11
-34 9 -12 10 -12 5 4 -6 16 -4 17 9 6 13 -11 15 -9 15 13 0 14 -4 29 -10 32
-6 4 -7 -1 -3 -12z"/>
<path d="M1034 645 c0 -27 3 -35 15 -33 20 4 27 48 9 59 -21 14 -23 11 -24
-26z m23 -7 c-3 -8 -6 -5 -6 6 -1 11 2 17 5 13 3 -3 4 -12 1 -19z"/>
<path d="M1212 670 c0 -20 16 -68 17 -53 1 8 8 10 19 6 15 -6 15 -5 3 10 -7 9
-10 24 -7 33 5 14 4 15 -8 5 -11 -9 -15 -9 -19 1 -4 9 -5 9 -5 -2z"/>
<path d="M1096 648 c-8 -33 -8 -34 14 -34 11 0 20 3 20 6 -1 17 -14 50 -20 50
-4 0 -10 -10 -14 -22z"/>
<path d="M1150 646 c0 -14 5 -28 12 -32 7 -4 8 -3 4 4 -4 7 -3 12 3 12 5 0 11
-6 14 -12 2 -7 4 2 5 20 0 25 -3 32 -19 32 -13 0 -19 -7 -19 -24z"/>
<path d="M1215 1240 c-4 -6 -3 -16 3 -22 6 -6 12 -6 17 2 4 6 3 16 -3 22 -6 6
-12 6 -17 -2z"/>
<path d="M220 951 c0 -5 23 -44 51 -87 64 -97 210 -244 306 -308 246 -161 559
-208 832 -124 218 67 435 231 566 428 68 103 69 100 -12 100 l-69 0 -46 -62
c-100 -137 -259 -260 -408 -317 -325 -126 -678 -50 -937 202 -40 39 -89 94
-110 124 l-36 53 -69 0 c-37 0 -68 -4 -68 -9z m160 -48 c45 -67 159 -180 235
-233 261 -180 592 -211 876 -82 132 60 275 175 359 291 l45 61 57 0 58 0 -37
-61 c-50 -80 -177 -215 -262 -278 -117 -87 -270 -154 -414 -182 -34 -7 -116
-12 -182 -12 -342 0 -656 184 -856 501 l-21 32 59 0 c56 0 59 -2 83 -37z"/>
<path d="M344 868 c-10 -12 -13 -18 -5 -13 11 6 13 4 8 -8 -8 -21 2 -21 28 0
14 11 15 14 4 10 -13 -4 -15 -1 -12 14 7 25 1 24 -23 -3z"/>
<path d="M1874 856 c-8 -9 -5 -15 13 -23 25 -12 29 -6 10 18 -9 12 -15 13 -23
5z"/>
<path d="M374 815 c-18 -13 -18 -14 -1 -15 10 0 15 -4 12 -10 -3 -5 -2 -10 3
-10 5 0 14 11 20 25 14 30 -2 34 -34 10z"/>
<path d="M1834 815 c-9 -23 22 -53 38 -37 9 9 7 16 -10 32 -20 19 -23 19 -28
5z m36 -20 c0 -12 -19 -12 -23 0 -4 9 -1 12 9 8 7 -3 14 -7 14 -8z"/>
<path d="M434 792 c5 -8 1 -18 -10 -27 -11 -7 -17 -16 -14 -18 3 -3 15 3 27
13 21 16 21 19 6 31 -13 11 -15 11 -9 1z"/>
<path d="M1790 760 c0 -24 26 -38 42 -22 8 8 8 15 -2 27 -18 21 -40 19 -40 -5z
m36 -17 c-7 -7 -26 7 -26 19 0 6 6 6 15 -2 9 -7 13 -15 11 -17z"/>
<path d="M467 728 c-25 -27 -14 -35 12 -9 11 11 17 22 13 24 -4 2 -15 -5 -25
-15z"/>
<path d="M1756 708 c10 -13 19 -24 20 -26 1 -1 7 4 14 13 11 13 10 14 -4 9
-10 -4 -18 0 -22 10 -3 9 -11 16 -17 16 -5 0 -2 -10 9 -22z"/>
<path d="M500 690 c-9 -16 -8 -22 6 -27 16 -6 34 11 34 35 0 19 -28 14 -40 -8z
m28 -2 c-2 -6 -10 -14 -16 -16 -7 -2 -10 2 -6 12 7 18 28 22 22 4z"/>
<path d="M1705 690 c-8 -13 13 -40 31 -40 17 0 18 22 2 38 -15 15 -25 15 -33
2z m33 -18 c6 -18 -15 -14 -22 4 -4 10 -1 14 6 12 6 -2 14 -10 16 -16z"/>
<path d="M554 669 c-6 -8 -15 -21 -19 -29 -8 -13 -7 -13 10 0 17 14 18 13 12
-2 -9 -25 10 -22 24 3 6 13 7 19 1 15 -6 -3 -12 1 -14 10 -2 14 -5 15 -14 3z"/>
<path d="M1662 657 c-7 -8 -7 -17 2 -30 14 -18 32 -24 21 -7 -3 6 1 7 9 4 19
-7 20 5 2 29 -16 20 -20 21 -34 4z"/>
<path d="M595 620 c-17 -19 -17 -20 -1 -20 9 0 14 -4 11 -10 -3 -5 -1 -10 4
-10 6 0 11 6 11 14 0 8 3 21 6 30 9 22 -9 20 -31 -4z"/>
<path d="M1630 626 c0 -9 -4 -14 -10 -11 -15 9 -12 -9 6 -31 15 -18 15 -18 10
0 -5 13 -2 17 9 12 19 -7 19 3 0 28 -14 18 -15 18 -15 2z"/>
<path d="M642 586 c-9 -20 -8 -25 4 -30 23 -9 31 -7 15 3 -10 7 -11 13 -2 30
7 11 8 21 3 21 -5 0 -14 -11 -20 -24z"/>
<path d="M1566 591 c-9 -14 4 -41 19 -41 8 0 17 4 20 10 3 5 0 7 -8 4 -20 -7
-33 16 -16 27 9 6 10 9 2 9 -6 0 -14 -4 -17 -9z"/>
<path d="M1515 570 c-7 -11 12 -50 25 -50 5 0 12 4 15 10 4 6 -1 7 -12 3 -16
-6 -16 -5 -4 10 9 12 10 17 2 17 -7 0 -9 5 -6 10 3 6 2 10 -4 10 -5 0 -13 -4
-16 -10z"/>
<path d="M756 542 c-3 -9 -9 -23 -12 -29 -3 -7 -2 -13 3 -13 12 0 33 49 23 55
-4 3 -10 -3 -14 -13z"/>
<path d="M1474 552 c-7 -5 -6 -15 3 -32 12 -25 12 -25 10 7 -1 18 -2 33 -2 33
0 0 -5 -4 -11 -8z"/>
<path d="M800 531 c0 -5 -3 -17 -7 -27 -4 -12 -3 -15 5 -10 7 4 12 2 12 -6 1
-8 6 -6 15 6 17 23 20 40 5 31 -5 -3 -10 -1 -10 4 0 6 -4 11 -10 11 -5 0 -10
-4 -10 -9z"/>
<path d="M864 494 c5 -17 3 -23 -4 -19 -5 3 -10 1 -10 -4 0 -6 7 -11 16 -11
12 0 15 6 10 26 -5 18 -3 24 5 18 8 -4 9 -3 5 4 -14 22 -28 13 -22 -14z"/>
<path d="M1364 514 c-14 -6 -6 -54 9 -54 6 0 7 3 4 7 -4 3 -1 13 6 21 9 13 9
14 0 8 -7 -4 -13 -3 -13 3 0 5 6 12 13 14 6 3 8 5 2 5 -5 0 -15 -2 -21 -4z"/>
<path d="M915 479 c0 -15 3 -25 8 -22 4 2 7 10 7 18 0 7 6 15 12 17 7 3 4 7
-7 10 -16 4 -20 0 -20 -23z"/>
<path d="M1302 473 c4 -36 33 -39 33 -3 0 16 -6 26 -18 28 -15 3 -18 -2 -15
-25z m28 -4 c0 -5 -4 -9 -10 -9 -5 0 -10 7 -10 16 0 8 5 12 10 9 6 -3 10 -10
10 -16z"/>
<path d="M973 484 c3 -4 2 -15 -4 -25 -7 -14 -6 -19 3 -19 7 0 14 11 14 25 1
14 -3 25 -9 25 -6 0 -7 -3 -4 -6z"/>
<path d="M1028 460 c5 -36 7 -35 16 3 4 19 3 27 -7 27 -9 0 -12 -9 -9 -30z"/>
<path d="M1197 483 c-4 -3 -7 -17 -7 -30 0 -18 5 -23 23 -22 19 1 19 2 3 6
-15 4 -16 7 -5 14 12 7 12 9 0 9 -11 0 -11 3 -1 15 12 14 0 22 -13 8z"/>
<path d="M1075 455 c1 -14 5 -28 8 -31 12 -12 27 8 26 34 -2 24 -2 24 -6 5 -2
-13 -9 -23 -14 -23 -6 0 -7 9 -4 20 3 11 2 20 -3 20 -6 0 -9 -11 -7 -25z"/>
<path d="M1138 455 c2 -14 8 -25 13 -25 5 0 6 7 2 16 -3 9 0 20 8 25 11 7 9 9
-7 9 -17 0 -20 -5 -16 -25z"/>
<path d="M430 451 l0 -139 33 -21 c202 -124 417 -185 657 -185 161 0 270 17
405 63 97 34 244 107 251 124 2 7 3 70 2 140 l-3 127 -60 -41 c-256 -174 -568
-228 -865 -148 -99 26 -262 106 -345 169 -36 27 -68 50 -71 50 -2 0 -4 -63 -4
-139z m224 -18 c335 -169 750 -143 1057 67 l60 41 -3 -123 -3 -123 -80 -42
c-171 -90 -356 -133 -567 -133 -210 0 -376 42 -570 143 l-98 50 0 124 0 123
67 -46 c36 -25 98 -62 137 -81z"/>
<path d="M1666 401 c-4 -6 0 -24 9 -41 16 -31 32 -42 21 -15 -4 13 -2 14 14 5
14 -7 20 -7 20 0 0 5 -4 10 -9 10 -5 0 -11 10 -13 22 -3 24 -32 36 -42 19z
m29 -10 c3 -5 1 -12 -5 -16 -5 -3 -10 1 -10 9 0 18 6 21 15 7z"/>
<path d="M543 371 c6 -30 -6 -43 -17 -18 -3 6 -5 3 -3 -8 4 -35 32 -24 31 13
-2 31 9 43 19 22 3 -6 4 -5 3 2 -1 7 -11 15 -21 17 -15 2 -17 -2 -12 -28z"/>
<path d="M1613 373 c-10 -4 -9 -10 2 -26 8 -12 15 -29 15 -39 0 -12 5 -15 16
-11 9 3 11 8 6 12 -6 3 -14 20 -19 37 -4 18 -13 29 -20 27z"/>
<path d="M595 340 c-19 -37 -19 -46 0 -30 13 10 15 9 16 -11 1 -21 2 -21 6 -4
3 11 10 26 15 32 12 14 4 43 -11 43 -6 0 -17 -13 -26 -30z m31 -7 c-10 -10
-19 5 -10 18 6 11 8 11 12 0 2 -7 1 -15 -2 -18z"/>
<path d="M1560 334 c0 -14 -2 -15 -17 -3 -15 12 -16 12 -10 -4 4 -11 10 -30
13 -43 3 -13 10 -24 16 -24 5 0 7 4 4 9 -4 5 -3 17 0 26 6 15 9 14 20 -6 18
-32 17 -17 0 26 -16 38 -26 45 -26 19z"/>
<path d="M674 332 c3 -5 -2 -21 -10 -36 -18 -35 -17 -36 2 -36 8 0 13 4 10 8
-3 5 2 21 10 36 18 35 17 36 -2 36 -8 0 -13 -4 -10 -8z"/>
<path d="M727 303 c-3 -10 -8 -29 -12 -43 l-6 -25 15 25 15 25 1 -30 c0 -38
18 -21 25 25 4 27 3 30 -4 15 -8 -17 -10 -17 -10 -3 -1 24 -19 32 -24 11z"/>
<path d="M1501 305 c0 -11 6 -31 14 -45 18 -32 19 -5 0 35 -10 23 -13 25 -14
10z"/>
<path d="M1471 300 c0 -8 6 -28 14 -45 13 -28 14 -28 12 -5 -3 29 -26 74 -26
50z"/>
<path d="M1413 284 c-4 -11 3 -24 18 -36 16 -13 18 -18 7 -14 -17 5 -24 -4
-12 -17 9 -9 34 4 34 18 0 7 -10 20 -22 28 -20 14 -21 16 -5 16 10 1 15 6 12
11 -9 15 -25 12 -32 -6z"/>
<path d="M805 280 c-3 -5 -3 -15 1 -22 4 -6 3 -8 -2 -5 -6 3 -15 -3 -22 -14
-7 -10 -8 -19 -3 -19 6 0 13 5 17 12 5 8 10 6 15 -8 5 -13 8 -7 8 24 1 42 -3
50 -14 32z"/>
<path d="M860 255 c-13 -35 -13 -40 6 -56 13 -10 17 -10 25 2 13 21 11 39 -6
39 -8 0 -15 5 -15 11 0 6 7 8 16 5 10 -4 14 -1 12 6 -8 23 -28 19 -38 -7z m20
-35 c0 -5 -4 -10 -10 -10 -5 0 -10 5 -10 10 0 6 5 10 10 10 6 0 10 -4 10 -10z"/>
<path d="M1351 233 c1 -27 3 -40 6 -30 5 18 23 24 23 7 0 -5 5 -10 10 -10 6 0
1 18 -10 40 -11 22 -23 40 -25 40 -3 0 -4 -21 -4 -47z"/>
<path d="M1300 259 c0 -6 -7 -8 -16 -5 -12 5 -15 2 -10 -10 3 -8 6 -28 7 -42
0 -23 2 -24 8 -8 5 14 10 16 15 8 4 -7 12 -12 18 -12 6 0 4 8 -5 18 -10 11
-14 26 -10 40 3 12 3 22 -1 22 -3 0 -6 -5 -6 -11z"/>
<path d="M931 229 c-15 -44 -14 -56 4 -33 13 17 14 17 15 2 0 -10 5 -18 11
-18 6 0 8 7 5 16 -3 9 -6 27 -6 40 0 34 -16 30 -29 -7z"/>
<path d="M998 220 c-2 -22 0 -40 4 -40 5 0 8 5 8 12 0 6 6 4 13 -6 12 -16 13
-13 13 21 0 34 -9 52 -27 53 -4 0 -9 -18 -11 -40z m32 10 c0 -5 -4 -10 -10
-10 -5 0 -10 5 -10 10 0 6 5 10 10 10 6 0 10 -4 10 -10z"/>
</g>
</svg>
