<?xml version="1.0" standalone="no"?>
<!DOCTYPE svg PUBLIC "-//W3C//DTD SVG 20010904//EN"
 "http://www.w3.org/TR/2001/REC-SVG-20010904/DTD/svg10.dtd">
<svg version="1.0" xmlns="http://www.w3.org/2000/svg"
 width="520.000000pt" height="72.000000pt" viewBox="0 0 520.000000 72.000000"
 preserveAspectRatio="xMidYMid meet">

<g transform="translate(0.000000,72.000000) scale(0.100000,-0.100000)"
fill="#000000" stroke="none">
<path d="M2120 680 c0 -5 13 -10 29 -10 16 0 35 -8 42 -17 12 -15 12 -16 -6
-8 -35 14 -72 17 -79 6 -5 -7 5 -11 28 -11 40 0 66 -8 66 -21 0 -5 -51 -10
-112 -10 -62 -1 -103 -4 -90 -6 17 -3 22 -11 22 -33 0 -17 7 -33 17 -39 16 -8
15 -11 -7 -30 -33 -27 -6 -28 38 -1 43 26 52 25 52 -5 0 -14 5 -25 10 -25 6 0
10 28 10 65 l0 65 30 0 30 0 0 -65 c0 -37 4 -65 10 -65 6 0 10 28 10 65 l0 65
65 0 c51 0 65 -3 65 -15 0 -11 -11 -15 -40 -15 -41 0 -57 -21 -25 -34 8 -3 15
-12 15 -20 0 -25 46 -49 79 -43 20 4 31 2 35 -8 14 -38 26 -10 26 61 l0 75 28
-3 c26 -3 27 -6 30 -65 4 -84 22 -81 22 3 l0 65 28 -3 c26 -3 27 -6 30 -65 4
-83 22 -81 22 2 l0 65 40 0 c36 0 40 -2 40 -25 0 -16 -6 -25 -15 -25 -19 0
-19 -14 0 -30 22 -18 35 -3 35 41 0 38 1 39 35 39 l35 0 0 -65 c0 -83 18 -85
22 -2 l3 62 73 0 c41 0 72 -4 72 -10 -1 -5 -13 -9 -29 -7 -16 2 -37 -5 -51
-16 -21 -17 -21 -19 -5 -35 10 -10 32 -17 56 -17 32 0 39 -3 39 -20 0 -36 19
-21 22 18 3 34 6 37 36 40 36 4 40 -3 16 -29 -10 -11 -12 -19 -5 -23 6 -4 18
5 27 20 15 22 15 27 3 35 -8 5 -29 8 -46 6 -29 -3 -33 0 -33 20 0 21 4 23 60
23 l59 0 3 -62 c2 -38 8 -63 16 -66 9 -3 12 14 12 61 0 54 3 66 18 70 14 4 15
5 1 6 -9 0 -24 12 -33 26 -9 14 -22 25 -28 25 -9 0 -9 -3 0 -12 7 -7 12 -18
12 -25 0 -11 -48 -13 -247 -11 -240 3 -248 4 -248 23 0 17 9 21 55 26 l55 6
-52 1 c-66 2 -83 -5 -83 -34 0 -33 -42 -33 -68 1 -25 32 -79 52 -95 36 -8 -8
-2 -11 24 -11 36 0 59 -14 59 -37 0 -10 -31 -13 -135 -13 -120 0 -136 2 -142
18 -11 31 -46 62 -70 62 -13 0 -23 -4 -23 -10z m-5 -110 c0 -18 -8 -27 -28
-34 -32 -12 -47 2 -47 42 0 21 4 23 38 20 32 -3 37 -6 37 -28z m295 -14 c0
-50 -16 -69 -57 -64 -33 4 -37 22 -5 26 38 6 24 22 -19 22 -24 0 -38 4 -34 10
3 6 21 10 39 10 25 0 35 5 39 20 3 11 12 20 21 20 12 0 16 -10 16 -44z m534
-5 c6 -9 -36 -31 -59 -31 -20 0 -30 21 -14 31 18 11 66 12 73 0z"/>
<path d="M551 579 c1 -115 10 -171 22 -151 11 16 27 15 27 -2 0 -16 -37 -32
-48 -21 -4 4 -9 65 -11 136 l-3 129 -25 -36 c-22 -34 -24 -42 -17 -115 6 -75
6 -79 -14 -79 -27 0 -36 15 -17 30 17 14 21 95 4 85 -6 -4 -7 -19 -4 -35 5
-22 1 -31 -17 -44 -21 -15 -23 -15 -35 7 l-12 22 -1 -22 c0 -13 -5 -23 -12
-23 -9 0 -9 -3 0 -12 16 -16 15 -31 0 -22 -10 6 -10 4 0 -7 17 -19 15 -32 -5
-25 -16 6 -16 6 0 -12 21 -23 22 -43 2 -36 -27 11 -15 -10 25 -43 21 -18 42
-33 45 -33 4 0 16 -12 28 -26 16 -21 26 -25 50 -20 37 7 56 23 68 53 7 18 15
23 36 21 19 -2 28 2 31 15 2 11 -3 17 -14 17 -16 0 -15 2 4 20 12 11 24 33 28
48 10 45 12 48 13 15 1 -17 -4 -44 -10 -60 -8 -21 -8 -25 2 -16 21 21 23 95 3
138 l-18 40 -5 -62 c-3 -34 -9 -65 -13 -69 -5 -4 -8 -2 -8 4 0 18 -24 14 -53
-8 -27 -22 -37 -25 -37 -12 0 5 18 17 40 27 22 10 37 22 33 28 -3 5 -5 40 -4
76 1 36 -3 73 -9 81 -7 11 -10 -4 -10 -51 0 -49 -4 -68 -14 -72 -18 -7 -32 82
-23 146 4 28 1 48 -9 61 -12 18 -14 8 -13 -85z m-34 -66 c-2 -21 -4 -4 -4 37
0 41 2 58 4 38 2 -21 2 -55 0 -75z m-90 -77 c-3 -7 0 -19 6 -25 8 -8 8 -11 0
-11 -7 0 -15 5 -18 10 -7 12 0 40 11 40 3 0 4 -6 1 -14z m103 -21 c0 -21 -5
-25 -30 -25 -16 0 -30 5 -30 10 0 6 9 10 19 10 10 0 21 7 25 15 8 23 16 18 16
-10z m-24 -45 c18 0 24 -5 24 -22 0 -13 -5 -30 -10 -38 -8 -11 -9 -7 -4 14 6
26 5 28 -12 21 -10 -5 -32 -9 -49 -9 -24 -1 -31 4 -33 23 -3 22 -1 23 28 17
18 -3 43 -6 56 -6z m119 -9 c-3 -6 -11 -11 -17 -11 -6 0 -6 6 2 15 14 17 26
13 15 -4z m4 -37 c2 -2 -8 -4 -22 -4 -19 0 -25 -4 -21 -14 12 -32 -72 -76 -90
-47 -8 12 22 23 44 16 9 -3 23 2 31 11 11 14 11 18 -4 29 -9 7 -17 15 -17 18
0 6 71 -3 79 -9z m-129 -19 c0 -17 -4 -18 -40 -8 l-25 7 25 7 c38 11 40 10 40
-6z m60 -5 c0 -5 -4 -10 -10 -10 -5 0 -10 5 -10 10 0 6 5 10 10 10 6 0 10 -4
10 -10z"/>
<path d="M448 353 c7 -3 16 -2 19 1 4 3 -2 6 -13 5 -11 0 -14 -3 -6 -6z"/>
<path d="M2963 670 c-24 -10 -31 -34 -13 -45 6 -3 10 3 10 14 0 18 6 21 53 22
41 1 47 3 27 9 -33 11 -50 11 -77 0z"/>
<path d="M1514 659 c-3 -6 1 -18 9 -27 15 -14 15 -13 11 6 -5 17 -1 21 23 25
28 4 28 4 -4 6 -17 0 -35 -4 -39 -10z"/>
<path d="M4364 659 c-3 -6 1 -18 11 -27 15 -16 16 -16 13 3 -2 15 4 21 27 26
29 7 29 7 -7 8 -20 0 -40 -4 -44 -10z"/>
<path d="M1598 648 c35 -35 17 -38 -205 -40 -120 -1 -199 -3 -175 -5 34 -3 42
-8 42 -24 0 -14 -7 -19 -25 -19 -38 0 -31 -24 17 -59 44 -32 58 -38 58 -21 0
5 -17 18 -37 28 -36 19 -37 20 -15 33 12 8 22 24 22 36 0 20 5 23 35 23 l35 0
0 -65 c0 -37 4 -65 10 -65 6 0 10 28 10 65 l0 65 30 0 c25 0 30 -4 30 -24 0
-13 7 -29 15 -36 14 -11 13 -14 -5 -27 -27 -19 -12 -46 32 -63 l33 -12 -25 -8
c-24 -8 -24 -8 -2 -9 12 -1 25 6 28 14 4 8 14 15 24 15 10 0 24 8 31 17 13 15
12 16 -11 8 -14 -4 -41 -8 -60 -9 -28 -1 -35 3 -35 18 0 14 10 22 35 29 47 12
60 24 60 58 0 26 4 29 30 29 l30 0 0 -65 c0 -83 18 -85 22 -2 l3 62 45 0 c33
0 45 -4 45 -15 0 -8 -11 -16 -23 -18 l-24 -4 23 -24 c16 -17 33 -24 61 -24 31
0 38 -3 38 -20 0 -11 5 -20 10 -20 6 0 10 28 10 64 0 59 2 65 23 69 12 2 -28
5 -89 6 -107 1 -112 2 -128 26 -9 14 -22 25 -28 25 -9 0 -9 -3 0 -12z m-68
-73 c0 -14 -4 -25 -8 -25 -5 0 -19 11 -32 25 l-23 25 31 0 c27 0 32 -4 32 -25z
m270 -5 c0 -37 -38 -57 -73 -39 l-21 12 23 8 c17 7 21 14 16 29 -5 17 -2 20
24 20 28 0 31 -3 31 -30z m-291 -32 c1 -12 -34 -9 -47 4 -7 7 -12 20 -12 31 0
17 2 17 29 -5 17 -13 30 -26 30 -30z"/>
<path d="M2721 656 c2 -2 20 -11 39 -20 l35 -17 -25 20 c-14 11 -31 21 -39 21
-8 0 -12 -2 -10 -4z"/>
<path d="M3391 651 c-10 -7 -10 -10 -1 -16 6 -4 16 -3 22 3 13 13 -4 23 -21
13z"/>
<path d="M4458 635 c4 -24 3 -25 -54 -26 -33 -1 -51 -3 -41 -6 25 -7 23 -53
-3 -53 -11 0 -20 -4 -20 -9 0 -5 -13 -14 -30 -21 -30 -13 -41 -30 -17 -30 6 0
26 9 42 20 39 26 43 25 47 -7 2 -14 9 -28 16 -31 9 -3 12 14 12 62 0 63 1 66
25 66 23 0 24 -4 27 -62 2 -38 8 -63 16 -66 9 -3 12 14 12 63 l0 66 77 -3 c65
-3 78 -6 81 -20 3 -15 -4 -18 -41 -18 -61 0 -81 -8 -66 -26 15 -19 39 -18 39
1 0 10 11 15 35 15 34 0 35 -1 35 -40 0 -22 5 -40 10 -40 6 0 10 28 10 65 l0
65 40 0 c36 0 40 -2 40 -25 0 -16 -6 -25 -15 -25 -19 0 -19 -14 0 -30 22 -18
35 -3 35 41 0 38 1 39 35 39 l35 0 0 -65 c0 -83 18 -85 22 -2 l3 62 53 3 c47
3 52 1 52 -17 0 -16 -6 -21 -25 -21 -40 0 -32 -20 27 -64 21 -16 42 -25 49
-20 8 4 -1 14 -25 26 -38 20 -46 35 -21 44 8 4 15 17 15 29 0 18 7 25 28 28
15 2 -98 5 -251 6 l-277 1 -12 25 c-6 14 -14 25 -18 25 -4 0 -5 -11 -2 -25z"/>
<path d="M315 617 c-6 -14 -10 -15 -21 -6 -17 14 -17 9 -4 -26 5 -14 14 -23
20 -20 5 3 10 0 10 -8 0 -8 7 -18 16 -21 24 -9 36 -7 28 5 -3 6 0 15 7 20 11
7 11 11 2 17 -8 5 -9 13 -3 22 15 23 12 29 -10 23 -11 -3 -20 -10 -21 -17 0
-6 -4 -2 -9 9 -7 19 -8 19 -15 2z"/>
<path d="M710 605 c6 -16 5 -25 -3 -29 -9 -5 -9 -7 1 -12 6 -3 12 -13 12 -21
0 -10 6 -13 16 -9 9 3 18 6 20 6 2 0 4 7 4 16 0 8 4 13 9 9 12 -7 34 32 27 48
-3 9 -5 9 -5 0 -1 -18 -21 -16 -21 2 0 8 -4 15 -10 15 -5 0 -10 -4 -10 -10 0
-6 -9 -6 -25 0 -23 9 -24 8 -15 -15z"/>
<path d="M3455 610 c-99 -3 -167 -7 -150 -10 36 -6 47 -39 16 -47 -33 -9 -26
-24 31 -67 21 -16 39 -23 42 -17 4 6 -7 17 -24 26 -30 15 -37 41 -12 39 7 -1
28 -2 47 -2 32 -2 35 -5 35 -32 0 -16 5 -30 10 -30 6 0 10 28 10 65 l0 65 40
0 c36 0 40 -2 40 -25 0 -18 -5 -25 -20 -25 -30 0 -14 -26 36 -61 31 -21 44
-26 44 -16 0 8 -13 20 -30 27 -59 24 -29 42 45 28 28 -5 71 -12 98 -15 38 -4
47 -9 47 -24 0 -10 5 -19 10 -19 6 0 10 29 10 66 l0 65 28 -3 c26 -3 27 -6 30
-65 4 -83 22 -81 22 2 l0 65 80 0 c73 0 80 -2 80 -20 0 -17 -7 -20 -49 -20
-51 0 -75 -15 -50 -31 20 -13 29 -11 29 6 0 10 11 15 35 15 34 0 35 -1 35 -40
0 -22 5 -40 10 -40 6 0 10 28 10 64 0 59 2 65 23 69 12 2 -61 5 -163 5 -120 0
-177 -2 -162 -8 40 -16 18 -80 -28 -80 -46 0 -68 26 -28 32 49 7 23 71 -26 66
-12 -1 -102 -5 -201 -8z m234 -14 c9 -10 8 -16 -4 -26 -20 -17 -115 -26 -115
-12 0 6 -3 17 -6 26 -5 12 1 16 24 16 17 0 32 -6 36 -15 3 -8 10 -15 16 -15 6
0 8 5 4 11 -3 6 0 15 7 20 19 12 25 11 38 -5z m-249 -21 c0 -22 -4 -25 -40
-25 -36 0 -40 3 -40 25 0 23 4 25 40 25 36 0 40 -2 40 -25z"/>
<path d="M4243 603 c-4 -10 2 -23 16 -35 23 -17 23 -18 3 -18 -12 0 -24 -4
-27 -10 -8 -13 7 -13 55 2 46 15 57 34 34 59 -21 24 -72 25 -81 2z m67 -3 c13
-8 13 -11 -2 -26 -14 -14 -20 -15 -33 -4 -12 10 -13 16 -4 26 13 16 19 17 39
4z"/>
<path d="M587 588 c-3 -13 -1 -45 3 -73 7 -50 7 -49 9 23 1 73 -3 90 -12 50z"/>
<path d="M441 554 c-12 -15 -21 -33 -21 -40 0 -20 16 -25 29 -10 9 11 9 15 -1
18 -9 3 -8 11 5 31 22 35 15 35 -12 1z"/>
<path d="M641 523 c0 -15 4 -48 8 -73 8 -44 9 -44 10 22 0 37 -3 70 -9 73 -6
4 -10 -6 -9 -22z"/>
<path d="M278 471 c-10 -14 -21 -20 -29 -16 -9 6 -11 2 -7 -13 4 -12 1 -22 -4
-22 -7 0 -6 -5 1 -14 6 -7 28 -13 48 -12 32 1 37 4 40 30 3 22 1 27 -11 23
-10 -4 -16 2 -18 21 l-3 27 -17 -24z"/>
<path d="M780 460 c0 -13 -5 -18 -14 -14 -11 4 -14 -1 -12 -23 3 -25 7 -28 40
-29 20 -1 41 5 47 12 7 9 8 14 1 14 -5 0 -8 9 -5 20 4 15 2 19 -10 15 -8 -4
-17 1 -20 9 -9 23 -27 20 -27 -4z"/>
<path d="M300 307 c0 -20 -4 -25 -16 -20 -14 5 -15 3 -5 -15 9 -17 9 -22 -1
-22 -7 0 -4 -6 6 -12 14 -8 24 -8 39 1 10 7 21 10 24 7 3 -3 12 1 19 9 16 16
19 29 4 20 -5 -3 -10 3 -10 15 0 12 -4 18 -11 15 -5 -4 -19 1 -30 11 -18 16
-19 16 -19 -9z"/>
<path d="M759 312 c-12 -19 -14 -19 -26 -4 -11 15 -12 14 -13 -11 0 -18 -4
-26 -11 -22 -6 4 -5 -2 2 -13 7 -12 18 -18 24 -14 19 12 34 10 28 -4 -6 -17
16 -18 37 -3 13 9 12 10 -3 5 -16 -5 -16 -4 0 21 17 26 17 27 -1 20 -13 -5
-17 -3 -13 6 3 8 2 20 -3 27 -6 10 -11 8 -21 -8z"/>
<path d="M1955 245 c0 -69 3 -85 15 -85 12 0 14 15 12 85 -2 57 -7 85 -15 85
-8 0 -12 -26 -12 -85z"/>
<path d="M3050 309 c-6 -11 -12 -49 -13 -85 -2 -62 -1 -64 23 -63 14 0 19 3
13 6 -8 3 -13 23 -13 48 0 33 4 45 18 48 16 4 16 5 -1 6 -13 1 -17 8 -15 24 2
14 9 21 21 21 9 -1 17 2 17 7 0 18 -40 9 -50 -12z"/>
<path d="M3208 323 c-47 -3 -58 -7 -57 -21 0 -10 3 -12 6 -4 2 6 13 12 24 12
17 0 19 -8 19 -63 0 -36 -5 -68 -12 -75 -9 -9 -4 -12 22 -12 26 0 31 3 22 12
-7 7 -12 39 -12 75 0 55 2 63 19 63 11 0 22 -6 24 -12 3 -7 6 -3 6 10 1 12 0
21 -1 20 -2 -1 -29 -3 -60 -5z"/>
<path d="M3478 260 c3 -46 0 -75 -8 -85 -10 -13 -9 -15 11 -15 22 0 24 4 24
47 0 36 4 48 15 48 11 0 15 -12 15 -48 0 -35 4 -47 15 -47 13 0 15 10 10 53
-5 49 -7 52 -32 52 -25 -1 -28 3 -28 32 0 20 -5 33 -13 33 -9 0 -12 -18 -9
-70z"/>
<path d="M3838 318 c16 -16 16 -130 0 -146 -9 -9 -7 -12 12 -12 25 0 25 1 22
85 -3 79 -5 85 -25 85 -16 0 -18 -3 -9 -12z"/>
<path d="M1208 308 c15 -15 16 -102 2 -129 -9 -17 -7 -19 17 -18 15 0 22 3 16
6 -8 3 -13 25 -13 60 l0 55 48 -63 47 -64 3 75 c2 44 8 78 15 82 7 5 0 8 -17
8 -23 0 -26 -2 -17 -14 7 -8 11 -33 9 -56 l-3 -42 -40 56 c-25 34 -47 56 -59
56 -16 0 -17 -3 -8 -12z"/>
<path d="M1545 311 c-6 -11 9 -23 19 -14 9 9 7 23 -3 23 -6 0 -12 -4 -16 -9z"/>
<path d="M2075 240 c0 -73 2 -80 20 -80 18 0 20 7 20 80 0 73 -2 80 -20 80
-18 0 -20 -7 -20 -80z"/>
<path d="M2442 311 c2 -7 7 -12 11 -12 12 1 9 15 -3 20 -7 2 -11 -2 -8 -8z"/>
<path d="M4307 313 c-18 -17 -6 -60 23 -81 33 -25 39 -49 13 -59 -10 -4 -23 2
-35 16 -21 27 -25 14 -4 -14 12 -16 19 -18 43 -10 42 15 43 53 3 87 -24 19
-31 32 -27 47 5 21 -3 28 -16 14z"/>
<path d="M4350 316 c0 -2 7 -9 15 -16 13 -11 14 -10 9 4 -5 14 -24 23 -24 12z"/>
<path d="M4502 309 c2 -6 8 -10 13 -10 5 0 11 4 13 10 2 6 -4 11 -13 11 -9 0
-15 -5 -13 -11z"/>
<path d="M1476 291 c-11 -18 -8 -113 4 -125 5 -5 17 -6 27 -2 17 7 17 8 1 17
-11 6 -18 22 -18 39 0 17 7 33 18 39 15 9 15 10 0 11 -9 0 -18 8 -20 18 -3 14
-5 15 -12 3z"/>
<path d="M2368 281 c-10 -12 -13 -23 -8 -26 6 -4 10 -24 10 -45 0 -44 11 -56
37 -41 17 10 17 10 1 11 -14 0 -18 9 -18 40 0 25 5 40 13 40 8 0 9 3 1 8 -6 4
-13 13 -15 20 -3 9 -9 7 -21 -7z"/>
<path d="M2502 285 c-9 -16 -1 -110 11 -121 3 -4 14 -3 24 1 12 5 14 9 6 12
-8 3 -13 21 -13 43 0 21 6 41 13 43 10 4 10 6 0 6 -7 1 -13 8 -13 16 0 20 -17
19 -28 0z"/>
<path d="M2706 291 c-11 -18 -8 -113 4 -125 5 -5 17 -5 27 -1 17 8 17 8 1 12
-13 3 -18 15 -18 43 0 28 5 40 18 43 15 4 15 5 0 6 -9 0 -18 9 -20 19 -3 14
-5 15 -12 3z"/>
<path d="M1370 255 c-8 -9 -9 -15 -2 -15 6 0 14 5 17 10 13 21 23 8 23 -30 1
-28 -3 -40 -14 -40 -17 0 -18 12 -2 28 14 14 0 16 -20 3 -8 -5 -12 -17 -10
-27 2 -15 12 -19 43 -19 l40 0 -3 40 c-2 22 -8 46 -14 53 -14 16 -43 15 -58
-3z"/>
<path d="M1549 268 c0 -2 -1 -27 -2 -56 -2 -40 1 -52 13 -52 12 0 14 11 12 55
-2 30 -8 55 -13 55 -5 0 -9 -1 -10 -2z"/>
<path d="M1616 254 c-32 -31 -10 -94 33 -94 23 0 51 31 51 58 0 26 -25 52 -50
52 -10 0 -26 -7 -34 -16z m49 -38 c0 -47 -21 -59 -35 -20 -13 34 -4 66 18 62
12 -2 17 -14 17 -42z"/>
<path d="M1729 265 c0 0 -1 -24 -2 -53 -2 -42 1 -52 15 -52 13 0 15 7 11 38
-4 27 -1 42 11 51 13 11 17 11 22 -3 3 -9 4 -32 2 -51 -3 -30 -1 -35 17 -35
18 0 21 5 18 33 -9 75 -10 76 -53 74 -22 -1 -40 -1 -41 -2z"/>
<path d="M1863 264 c-7 -3 -13 -13 -13 -22 1 -15 3 -14 15 2 11 15 18 17 26 9
13 -13 4 -33 -15 -33 -8 0 -19 -7 -26 -15 -19 -23 3 -43 43 -39 17 1 37 3 42
4 6 0 5 4 -2 8 -6 4 -13 25 -15 47 -3 40 -21 53 -55 39z m37 -64 c0 -11 -7
-20 -15 -20 -27 0 -18 30 13 39 1 1 2 -8 2 -19z"/>
<path d="M2159 263 c-1 -4 0 -23 1 -41 1 -18 -4 -40 -10 -48 -10 -11 -8 -14
11 -14 22 0 24 4 23 52 -1 29 -7 54 -13 56 -6 2 -11 0 -12 -5z"/>
<path d="M2209 256 c8 -9 12 -32 9 -56 -3 -31 0 -40 12 -40 13 0 15 9 10 52
-4 42 -9 54 -25 57 -17 3 -18 1 -6 -13z"/>
<path d="M2282 258 c-19 -19 -14 -34 14 -53 20 -13 23 -20 14 -28 -9 -9 -15
-7 -27 8 l-15 20 4 -20 c4 -24 40 -32 57 -12 14 18 5 44 -20 58 -11 5 -19 14
-19 19 0 14 27 12 33 -2 3 -8 6 -6 6 5 1 20 -29 23 -47 5z"/>
<path d="M2438 215 c-3 -50 -1 -55 17 -55 18 0 20 5 17 55 -5 76 -29 76 -34 0z"/>
<path d="M2577 228 c8 -73 3 -69 83 -59 3 1 3 23 2 51 -3 42 -7 50 -24 50 -17
0 -18 -3 -9 -14 18 -21 10 -70 -11 -74 -15 -3 -18 4 -18 42 0 33 -4 46 -14 46
-11 0 -13 -10 -9 -42z"/>
<path d="M2776 255 c-20 -21 -21 -59 0 -79 17 -18 24 -19 48 -10 22 8 20 23
-2 17 -24 -6 -52 25 -33 37 9 5 10 9 2 14 -14 9 -5 26 15 26 8 0 14 -7 14 -15
0 -8 5 -15 11 -15 6 0 9 8 7 18 -4 23 -41 27 -62 7z"/>
<path d="M2926 254 c-32 -31 -10 -94 33 -94 23 0 51 31 51 58 0 26 -25 52 -50
52 -10 0 -26 -7 -34 -16z m49 -38 c0 -47 -21 -59 -35 -20 -13 34 -4 66 18 62
12 -2 17 -14 17 -42z"/>
<path d="M3286 255 c-20 -21 -21 -59 0 -79 17 -18 24 -19 48 -10 22 8 20 23
-2 17 -24 -6 -52 25 -33 37 9 5 10 9 2 14 -14 9 -5 26 15 26 8 0 14 -7 14 -15
0 -8 5 -15 11 -15 6 0 9 8 7 18 -4 23 -41 27 -62 7z"/>
<path d="M3390 250 c-24 -24 -26 -53 -4 -74 18 -18 33 -20 54 -6 12 8 11 10
-8 10 -30 0 -51 42 -32 65 7 9 21 13 31 10 11 -4 19 -2 19 4 0 18 -39 12 -60
-9z"/>
<path d="M3609 263 c-1 -4 0 -23 1 -41 1 -18 -4 -40 -10 -48 -10 -11 -8 -14
11 -14 22 0 24 4 23 52 -1 29 -7 54 -13 56 -6 2 -11 0 -12 -5z"/>
<path d="M3659 256 c8 -9 12 -32 9 -56 -3 -31 0 -40 12 -40 13 0 15 9 10 52
-4 42 -9 54 -25 57 -17 3 -18 1 -6 -13z"/>
<path d="M3736 254 c-32 -31 -10 -94 33 -94 23 0 51 31 51 58 0 26 -25 52 -50
52 -10 0 -26 -7 -34 -16z m49 -38 c0 -47 -21 -59 -35 -20 -13 34 -4 66 18 62
12 -2 17 -14 17 -42z"/>
<path d="M3916 254 c-32 -31 -10 -94 33 -94 23 0 51 31 51 58 0 26 -25 52 -50
52 -10 0 -26 -7 -34 -16z m49 -38 c0 -47 -21 -59 -35 -20 -13 34 -4 66 18 62
12 -2 17 -14 17 -42z"/>
<path d="M4029 254 c-10 -12 -10 -20 -1 -34 6 -10 8 -21 4 -25 -10 -10 -11
-65 -1 -65 5 0 8 6 7 13 -2 7 8 12 27 12 19 0 29 -5 28 -12 -2 -7 2 -13 8 -13
6 0 9 10 7 23 -2 17 -11 23 -35 25 -41 4 -43 18 -4 25 21 4 30 13 33 29 2 13
10 24 20 26 23 4 55 -92 38 -113 -7 -8 -8 -15 -3 -15 6 0 18 21 28 48 10 26
24 57 31 70 13 20 13 22 -6 22 -12 0 -19 -4 -15 -10 3 -5 2 -22 -1 -37 l-7
-28 -13 30 c-7 17 -10 33 -7 38 2 4 -25 7 -60 7 -47 0 -68 -4 -78 -16z m51
-19 c0 -28 -24 -34 -34 -9 -8 20 1 34 20 34 8 0 14 -10 14 -25z"/>
<path d="M4419 263 c-1 -5 0 -23 1 -41 1 -18 -4 -40 -10 -48 -10 -11 -8 -14
11 -14 22 0 24 4 22 47 -1 27 -2 51 -2 56 -1 4 -5 7 -11 7 -5 0 -10 -3 -11 -7z"/>
<path d="M4450 260 c0 -5 7 -10 15 -10 8 0 15 5 15 10 0 6 -7 10 -15 10 -8 0
-15 -4 -15 -10z"/>
<path d="M4509 263 c-1 -5 0 -23 1 -41 1 -18 -4 -40 -10 -48 -10 -11 -8 -14
11 -14 23 0 24 3 21 55 -2 30 -8 55 -13 55 -5 0 -9 -3 -10 -7z"/>
<path d="M4569 265 c0 0 -1 -24 -2 -53 -2 -42 1 -52 15 -52 13 0 15 7 11 38
-4 27 -1 42 11 51 13 11 17 11 22 -3 3 -9 4 -32 2 -51 -3 -30 -1 -35 17 -35
18 0 21 5 18 33 -9 75 -10 76 -53 74 -22 -1 -40 -1 -41 -2z"/>
<path d="M4703 264 c-7 -3 -13 -13 -13 -22 1 -15 3 -14 15 2 11 15 18 17 26 9
13 -13 4 -33 -15 -33 -8 0 -19 -7 -26 -15 -19 -23 3 -43 43 -39 17 1 37 3 42
4 6 0 5 4 -2 8 -6 4 -13 25 -15 47 -3 40 -21 53 -55 39z m37 -64 c0 -11 -7
-20 -15 -20 -27 0 -18 30 13 39 1 1 2 -8 2 -19z"/>
<path d="M4800 249 c-8 -14 -8 -24 -1 -33 7 -8 7 -24 1 -47 -12 -41 -12 -39 0
-39 6 0 10 7 10 15 0 21 46 20 58 -1 7 -12 11 -13 16 -5 11 17 -13 41 -40 41
-13 0 -24 5 -24 10 0 6 9 10 20 10 11 0 23 8 26 18 3 9 10 25 15 35 8 15 4 17
-31 17 -29 0 -42 -5 -50 -21z m50 -14 c0 -16 -6 -25 -15 -25 -9 0 -15 9 -15
25 0 16 6 25 15 25 9 0 15 -9 15 -25z"/>
<path d="M4910 255 c-8 -9 -9 -15 -2 -15 6 0 14 5 17 10 13 21 23 8 23 -30 1
-28 -3 -40 -14 -40 -17 0 -18 12 -2 28 14 14 0 16 -20 3 -8 -5 -12 -17 -10
-27 2 -15 12 -19 43 -19 l40 0 -3 40 c-2 22 -8 46 -14 53 -14 16 -43 15 -58
-3z"/>
<path d="M5019 268 c0 -2 -1 -27 -2 -56 -2 -49 -1 -52 23 -52 17 0 21 3 12 9
-21 13 -12 76 11 75 9 -1 17 4 17 12 0 17 -12 18 -28 2 -9 -9 -12 -9 -12 0 0
10 -18 18 -21 10z"/>
<path d="M286 212 c-11 -10 -6 -63 4 -57 6 4 36 -3 68 -15 65 -24 192 -39 192
-22 0 6 -6 13 -12 15 -8 3 -6 6 5 6 9 1 17 -6 17 -14 0 -10 11 -15 35 -15 19
0 34 3 34 8 -4 22 3 32 22 32 11 0 30 5 41 11 14 7 23 8 31 0 7 -7 -4 -14 -37
-22 -26 -6 -45 -14 -42 -16 2 -3 31 3 63 13 32 10 66 17 76 16 13 -1 17 5 17
26 0 39 -8 44 -43 26 -118 -62 -291 -65 -414 -9 -28 13 -54 21 -57 17z m86
-43 c13 -8 27 -13 32 -14 5 0 11 -5 13 -12 3 -9 -5 -9 -31 -1 -20 6 -36 15
-36 20 0 4 -9 8 -20 8 -11 0 -20 4 -20 9 0 12 31 7 62 -10z m398 11 c0 -13
-28 -25 -38 -16 -3 4 0 11 8 16 20 13 30 12 30 0z m-300 -52 c0 -6 -7 -7 -16
-4 -9 3 -18 6 -20 6 -3 0 -3 4 1 10 7 11 35 2 35 -12z m50 2 c0 -5 -6 -10 -14
-10 -8 0 -18 5 -21 10 -3 6 3 10 14 10 12 0 21 -4 21 -10z m80 0 c0 -5 -7 -10
-15 -10 -8 0 -15 5 -15 10 0 6 7 10 15 10 8 0 15 -4 15 -10z"/>
<path d="M250 113 c0 -25 3 -33 9 -25 7 12 13 11 37 -1 34 -18 123 -43 177
-50 34 -5 37 -4 37 17 0 21 -6 25 -47 31 -27 4 -75 16 -107 26 -48 17 -61 18
-68 7 -8 -10 -9 -9 -5 4 3 9 -1 19 -9 22 -24 9 -24 9 -24 -31z m250 -53 c0 -5
-4 -10 -10 -10 -5 0 -10 5 -10 10 0 6 5 10 10 10 6 0 10 -4 10 -10z"/>
<path d="M765 128 c-27 -11 -81 -26 -120 -32 -65 -11 -70 -14 -73 -39 -2 -19
1 -27 12 -27 19 0 20 11 4 30 -7 8 -3 6 9 -4 18 -15 31 -17 68 -12 25 4 43 11
40 17 -3 5 1 6 9 3 8 -3 33 4 55 16 23 11 46 18 51 15 6 -4 10 7 10 24 0 36 1
35 -65 9z m17 -30 c-7 -7 -12 -8 -12 -2 0 14 12 26 19 19 2 -3 -1 -11 -7 -17z"/>
</g>
</svg>
