<?xml version="1.0" standalone="no"?>
<!DOCTYPE svg PUBLIC "-//W3C//DTD SVG 20010904//EN"
 "http://www.w3.org/TR/2001/REC-SVG-20010904/DTD/svg10.dtd">
<svg version="1.0" xmlns="http://www.w3.org/2000/svg"
 width="400.000000pt" height="400.000000pt" viewBox="0 0 400.000000 400.000000"
 preserveAspectRatio="xMidYMid meet">

<g transform="translate(0.000000,400.000000) scale(0.100000,-0.100000)"
fill="#000000" stroke="none">
<path d="M2004 3738 c-18 -58 -73 -170 -110 -229 -23 -38 -23 -38 -14 -206 6
-92 19 -364 30 -603 11 -239 23 -472 26 -517 l7 -83 -79 -1 c-122 -1 -195 1
-241 7 l-41 6 24 46 c13 25 24 51 24 57 0 22 62 24 92 4 14 -11 31 -19 38 -19
7 0 10 -6 7 -14 -3 -8 1 -20 9 -26 8 -7 14 -22 14 -34 1 -20 1 -20 11 -2 7 12
8 21 2 25 -6 3 -13 16 -17 29 -6 18 -4 22 13 22 11 0 33 11 48 24 l28 24 0
189 c0 103 -6 292 -13 418 -8 127 -12 312 -10 413 1 100 2 182 1 182 0 0 -16
-26 -33 -57 -18 -32 -51 -80 -73 -106 l-40 -48 6 -98 c4 -54 19 -158 33 -232
22 -112 26 -164 28 -321 1 -163 -1 -189 -16 -204 -15 -16 -19 -15 -57 4 -38
20 -41 20 -41 4 0 -41 -44 -56 -54 -18 -6 23 -31 52 -70 80 -19 13 -19 14 10
29 48 25 105 88 133 147 21 46 26 73 29 160 4 96 -17 274 -34 302 -13 20 -104
-140 -104 -181 0 -11 9 -43 20 -71 11 -28 20 -64 20 -81 0 -93 -108 -206 -234
-244 -24 -8 -47 -11 -50 -7 -4 3 6 18 21 34 l27 28 -31 30 c-30 30 -49 70 -33
70 5 0 12 -4 15 -10 10 -16 63 -11 104 10 37 18 121 103 121 121 0 12 -8 11
-57 -7 -41 -16 -44 -16 -63 1 -49 44 -13 130 128 306 40 50 71 93 69 95 -7 7
-122 -83 -163 -127 -81 -89 -174 -245 -174 -294 0 -14 -11 -42 -25 -63 -25
-39 -55 -137 -55 -183 0 -26 -1 -26 -50 -18 -28 4 -60 11 -70 14 -11 4 -20 2
-20 -2 0 -14 72 -79 106 -96 29 -15 32 -21 37 -74 2 -32 1 -62 -3 -66 -4 -5
-20 12 -36 37 -29 47 -49 60 -41 29 3 -10 8 -34 11 -54 4 -20 22 -54 41 -77
25 -29 36 -52 38 -79 2 -33 -1 -38 -18 -35 -43 8 -89 37 -116 75 -32 44 -37
33 -14 -34 24 -69 65 -106 146 -132 13 -4 18 -25 24 -97 4 -50 5 -94 2 -97 -3
-3 -26 5 -51 17 -55 26 -112 90 -128 142 -17 58 -31 34 -26 -46 5 -75 28 -126
79 -173 25 -23 136 -83 155 -83 5 0 20 -20 32 -45 46 -95 147 -178 233 -193
41 -7 45 -11 72 -67 35 -74 86 -128 152 -163 45 -24 61 -26 150 -26 113 0 155
12 264 75 115 66 179 154 188 260 l6 57 61 6 c89 9 87 9 136 -10 28 -11 56
-15 72 -11 33 9 96 72 104 104 14 54 -51 133 -108 133 -17 0 -67 -20 -115 -46
-78 -43 -90 -46 -152 -46 -60 1 -123 16 -194 47 -10 4 4 -16 32 -45 64 -66 67
-102 19 -192 -82 -155 -287 -212 -456 -127 -68 34 -82 52 -46 57 40 6 121 34
171 59 l52 26 34 -37 c30 -31 40 -36 81 -36 55 0 94 18 129 60 74 88 17 220
-95 220 -36 0 -38 2 -33 25 3 14 7 36 10 49 l5 25 63 -29 c221 -104 491 -29
612 169 50 84 66 154 72 330 6 142 7 151 20 120 19 -46 43 -191 43 -263 0
-132 -40 -269 -111 -381 -16 -26 -28 -49 -26 -52 9 -9 115 104 136 144 11 23
32 81 47 130 50 170 31 378 -56 586 -30 72 -167 293 -176 284 -2 -2 0 -37 5
-78 28 -220 21 -508 -15 -631 -18 -58 -53 -128 -66 -128 -4 0 -8 20 -8 45 0
64 -26 90 -88 90 -40 0 -58 -8 -122 -53 -41 -28 -103 -74 -137 -102 -74 -58
-127 -77 -159 -55 -12 7 -24 23 -27 35 -6 23 -6 23 182 101 152 63 204 109
231 208 13 49 -1 90 -38 106 -32 14 -27 23 18 35 35 9 41 15 51 53 9 35 7 67
-12 187 -29 183 -31 300 -6 356 l19 42 -37 37 c-20 21 -48 54 -63 73 l-26 34
-9 -24 c-21 -55 -20 -220 3 -362 25 -154 23 -228 -6 -291 -31 -65 -131 -109
-152 -67 -20 38 -52 457 -52 683 l0 185 29 45 29 46 -22 49 c-12 27 -40 83
-63 124 -23 41 -48 97 -55 125 l-12 50 -7 -40 c-20 -106 -6 -1332 17 -1508 l6
-48 28 45 c16 25 47 63 69 84 23 22 41 45 41 52 0 18 62 4 78 -17 22 -31 15
-87 -16 -116 -26 -25 -162 -87 -223 -102 -26 -6 -26 -6 -32 67 -14 162 -32
856 -32 1211 0 207 -1 377 -2 377 -1 0 -9 -24 -19 -52z m-624 -1369 c-34 -76
-22 -143 30 -162 31 -12 36 -22 21 -46 -8 -12 -16 -12 -55 3 -26 10 -51 26
-56 36 -6 10 -10 59 -10 109 l0 90 43 9 c23 5 43 8 45 7 1 -1 -7 -22 -18 -46z
m140 -44 c20 -25 8 -50 -25 -50 -21 0 -31 5 -33 18 -4 21 14 47 33 47 7 0 18
-7 25 -15z m79 -320 c95 -25 117 -27 233 -23 l128 4 0 -82 c0 -145 -51 -263
-133 -306 -34 -18 -59 -22 -131 -23 l-90 0 -8 33 c-11 40 -26 42 -20 2 3 -25
1 -30 -15 -30 -23 0 -85 39 -91 58 -2 8 8 12 32 12 56 0 136 20 205 51 99 45
111 39 86 -42 -8 -29 -13 -54 -12 -56 8 -8 90 73 106 106 30 59 56 221 35 221
-3 0 -20 -11 -36 -25 -38 -32 -95 -62 -168 -87 -68 -23 -238 -41 -304 -31
l-49 8 -12 55 c-7 30 -15 78 -19 106 l-6 51 52 16 c65 19 86 17 217 -18z m922
15 c49 -27 -5 -101 -86 -118 -49 -10 -105 -6 -105 7 0 12 73 78 110 100 40 24
53 25 81 11z m149 -315 c7 -8 10 -25 6 -40 -5 -20 -12 -25 -39 -25 -36 0 -57
15 -57 40 0 38 64 56 90 25z m-552 -61 c39 -27 22 -94 -25 -94 -34 0 -95 38
-91 57 3 15 63 53 83 53 6 0 21 -7 33 -16z"/>
<path d="M1481 1921 c-39 -30 -5 -94 39 -71 16 9 25 9 35 0 10 -8 19 -8 33 -1
38 20 42 34 17 64 -20 26 -24 28 -43 16 -17 -11 -24 -11 -34 -1 -16 16 -18 15
-47 -7z"/>
<path d="M3206 3500 c-14 -40 -38 -193 -34 -215 9 -47 -11 -25 -27 30 -8 30
-20 55 -25 55 -6 0 -10 -4 -10 -10 0 -19 -16 -10 -33 20 -21 35 -37 39 -37 10
0 -26 -6 -25 -84 10 -76 34 -79 30 -37 -56 20 -41 26 -63 19 -71 -7 -9 -5 -15
6 -19 9 -3 16 -15 16 -25 0 -11 7 -19 16 -19 8 0 12 -5 8 -11 -8 -14 14 -29
43 -29 12 0 25 -4 28 -10 4 -6 -13 -8 -46 -5 -35 3 -58 -1 -74 -11 -12 -8 -46
-17 -75 -21 l-53 -6 29 -24 c16 -12 44 -28 62 -34 17 -6 32 -17 32 -25 0 -9
11 -14 35 -14 19 0 35 -5 35 -10 0 -6 10 -8 24 -4 44 11 36 -14 -20 -65 -60
-55 -60 -53 26 -55 33 -1 56 6 88 26 53 35 62 35 62 2 0 -43 24 -22 36 32 7
32 7 59 1 77 -18 54 2 38 34 -27 18 -36 39 -66 46 -66 18 0 16 15 -3 31 -20
17 -65 105 -57 113 3 3 22 -4 41 -16 31 -19 36 -20 46 -6 6 8 27 19 46 23 68
15 92 45 35 45 -37 0 -39 17 -5 41 18 14 28 29 25 38 -2 9 2 38 10 65 8 27 15
68 15 90 l0 41 -61 -67 c-34 -38 -66 -68 -72 -68 -5 0 -7 15 -4 35 4 26 2 35
-9 35 -8 0 -14 6 -14 13 0 25 -78 172 -84 157z m171 -253 c-56 -68 -88 -100
-94 -94 -3 4 22 37 56 74 33 37 61 72 62 78 0 5 3 4 6 -3 3 -7 -11 -32 -30
-55z m-138 -57 c-1 -44 -6 -83 -12 -87 -7 -4 -8 12 -4 48 4 30 7 69 7 87 0 17
2 32 5 32 3 0 5 -36 4 -80z m-104 -10 c27 -27 47 -50 44 -50 -3 0 -27 23 -54
50 -27 28 -47 50 -44 50 3 0 27 -22 54 -50z"/>
<path d="M765 3418 c-21 -46 -43 -86 -48 -89 -5 -4 -6 -21 -2 -38 4 -17 2 -31
-3 -31 -5 0 -34 26 -64 58 -30 31 -59 58 -63 59 -13 4 -5 -98 11 -136 9 -21
11 -37 5 -41 -13 -7 -3 -21 32 -43 33 -21 27 -37 -13 -37 -60 0 -35 -31 37
-45 17 -3 37 -13 43 -20 10 -12 18 -11 51 5 28 15 39 17 39 8 0 -19 -49 -102
-66 -111 -18 -10 -18 -27 1 -27 8 0 30 30 49 67 l34 67 0 -65 c0 -70 8 -109
23 -109 5 0 9 9 9 20 0 33 26 34 67 2 38 -29 58 -32 158 -23 20 2 20 2 -1 17
-52 36 -96 83 -89 94 4 6 16 10 26 7 10 -3 22 -1 25 5 3 5 16 8 27 7 37 -2 48
1 42 11 -3 5 21 23 54 39 33 17 62 35 65 39 3 5 -17 12 -46 15 -28 4 -62 14
-76 23 -19 13 -38 15 -78 10 -64 -7 -70 -1 -14 14 22 6 40 17 40 24 0 8 7 17
16 20 8 3 13 10 10 15 -3 5 1 14 10 21 8 7 13 19 10 27 -3 7 8 41 24 75 15 34
27 65 24 69 -2 3 -25 -4 -51 -17 -27 -12 -60 -25 -75 -29 -25 -6 -28 -4 -28
16 -1 23 -2 22 -32 -11 -19 -22 -32 -30 -35 -22 -10 26 -22 10 -33 -43 -14
-68 -34 -86 -28 -24 3 24 -1 64 -8 89 -7 25 -15 62 -19 83 -3 20 -9 37 -13 37
-4 0 -25 -37 -47 -82z m-69 -202 c32 -38 52 -67 44 -64 -18 5 -130 136 -130
152 0 12 2 9 86 -88z m104 -58 c0 -34 -2 -59 -4 -57 -8 10 -13 129 -5 123 5
-3 9 -33 9 -66z m90 7 c-18 -19 -36 -32 -39 -30 -2 3 11 21 29 40 18 19 36 32
39 30 2 -3 -11 -21 -29 -40z"/>
<path d="M2255 3263 c-9 -181 -2 -365 20 -498 12 -71 15 -126 10 -189 -5 -82
-5 -88 10 -76 9 8 30 37 46 65 34 58 37 106 13 205 -20 84 -32 272 -23 349 4
33 16 77 28 96 l21 36 -53 79 c-28 43 -55 79 -58 79 -4 1 -10 -65 -14 -146z"/>
<path d="M2565 2925 c4 -66 17 -257 31 -425 13 -168 24 -318 25 -335 0 -26 3
-23 19 23 36 100 42 197 29 424 -9 167 -9 217 1 248 12 38 12 38 -40 101 -29
35 -57 69 -62 74 -6 7 -8 -32 -3 -110z"/>
<path d="M601 2600 c-35 -59 -45 -70 -53 -56 -16 28 -28 18 -28 -25 0 -35 -2
-40 -19 -34 -18 5 -19 3 -12 -23 5 -16 14 -39 20 -50 6 -11 11 -29 11 -39 -1
-12 -8 -7 -23 18 -21 34 -154 155 -162 147 -2 -2 4 -44 14 -93 10 -50 16 -96
14 -103 -3 -6 5 -21 18 -31 35 -28 18 -35 -53 -21 -35 7 -76 14 -92 17 l-29 6
33 -41 c18 -23 50 -53 71 -68 21 -14 36 -30 33 -35 -3 -5 9 -10 25 -10 66 -3
72 -11 35 -43 -39 -33 -23 -44 34 -22 26 10 57 17 70 17 17 -1 27 8 38 34 8
19 18 35 23 35 11 0 21 -51 21 -112 0 -30 4 -47 10 -43 13 8 13 60 -1 108 -13
48 -6 58 15 20 20 -38 86 -104 97 -97 5 3 5 13 -1 24 -18 34 -11 40 45 40 47
0 62 5 105 36 27 20 50 39 50 44 0 4 -31 10 -69 12 -39 2 -73 7 -77 11 -4 4
14 27 40 51 27 24 44 46 38 50 -5 3 3 30 19 62 38 74 38 92 2 66 -26 -18 -73
-35 -100 -37 -7 0 -18 -6 -25 -13 -6 -6 -16 -12 -20 -12 -5 0 -20 -12 -34 -27
-14 -16 -22 -21 -18 -13 4 8 15 24 25 35 15 17 19 55 9 85 -1 3 -1 15 0 28 1
12 -3 22 -9 22 -5 0 -15 26 -21 58 -20 103 -21 103 -69 22z m6 -212 c-3 -8 -6
-5 -6 6 -1 11 2 17 5 13 3 -3 4 -12 1 -19z m-12 -73 c-3 -26 -9 -45 -12 -42
-2 3 -1 26 2 52 4 25 10 44 12 41 3 -3 2 -26 -2 -51z m-34 -97 c18 -32 -14
-10 -43 30 -63 86 -67 94 -18 42 28 -30 55 -63 61 -72z m189 96 c-8 -8 -23
-20 -34 -25 -13 -6 -10 0 9 15 34 29 43 33 25 10z m-355 -69 c75 -17 118 -35
84 -35 -32 0 -171 39 -182 50 -9 10 -9 12 3 8 8 -3 51 -13 95 -23z"/>
<path d="M3360 2598 c-7 -40 -17 -76 -23 -80 -5 -3 -11 -31 -13 -61 -2 -44 1
-58 17 -72 10 -10 19 -25 19 -34 -1 -12 -7 -9 -23 10 -23 28 -66 55 -80 51 -5
-2 -36 11 -68 27 -58 29 -60 29 -53 8 3 -12 16 -41 29 -64 13 -23 21 -51 18
-61 -3 -12 4 -22 21 -30 14 -6 26 -17 26 -23 0 -7 8 -18 18 -25 15 -12 15 -15
2 -24 -14 -9 -66 -14 -120 -11 l-25 2 31 -28 c66 -60 73 -63 127 -63 61 0 70
-5 56 -32 -6 -10 -9 -24 -6 -31 4 -14 79 58 101 98 16 30 16 30 10 -28 -10
-89 -10 -90 2 -94 6 -2 10 14 10 44 -1 54 10 103 22 103 5 0 15 -15 23 -32 9
-23 20 -32 33 -31 11 1 37 -7 58 -18 61 -31 90 -22 48 16 -32 29 -25 45 20 45
28 0 40 4 40 14 0 8 9 17 20 21 19 6 110 101 110 115 0 4 -19 2 -42 -5 -24 -7
-68 -16 -98 -20 -52 -7 -54 -7 -40 11 8 11 21 23 28 27 7 5 10 12 7 17 -3 5 2
50 11 100 8 51 13 95 9 98 -3 3 -24 -13 -48 -35 -23 -22 -52 -49 -65 -59 -13
-11 -31 -32 -39 -49 -22 -42 -28 -16 -9 40 19 56 19 56 1 49 -12 -5 -15 2 -15
28 0 43 -9 52 -29 34 -15 -13 -21 -8 -56 54 -22 38 -43 70 -47 70 -3 0 -12
-33 -18 -72z m77 -310 c-2 -13 -4 -5 -4 17 -1 22 1 32 4 23 2 -10 2 -28 0 -40z
m102 0 c-48 -61 -79 -94 -79 -84 0 12 102 137 108 131 2 -2 -11 -23 -29 -47z
m-238 15 c13 -15 12 -15 -8 -4 -24 12 -29 21 -14 21 5 0 15 -7 22 -17z m415
-48 c-18 -14 -73 -28 -151 -39 -54 -8 -27 4 70 30 99 26 105 27 81 9z"/>
<path d="M1631 2506 c-23 -24 -23 -25 -5 -50 23 -30 32 -31 62 -7 27 23 27 29
3 59 -24 28 -32 28 -60 -2z"/>
<path d="M2514 2266 c-27 -23 -28 -24 -11 -50 21 -31 33 -32 66 -7 l24 18 -22
32 c-12 17 -24 31 -26 31 -2 0 -16 -11 -31 -24z"/>
<path d="M1817 2193 c-4 -3 -7 -11 -7 -17 0 -6 5 -5 12 2 6 6 9 14 7 17 -3 3
-9 2 -12 -2z"/>
<path d="M694 1733 c-8 -73 -10 -78 -31 -75 -26 4 -28 -3 -8 -38 19 -33 18
-38 -2 -42 -13 -2 -7 -13 26 -47 49 -51 47 -65 -4 -26 -20 15 -39 25 -41 22
-3 -3 -37 6 -76 19 -39 14 -72 23 -75 20 -2 -2 20 -40 51 -84 30 -44 52 -83
49 -86 -4 -3 8 -11 25 -17 18 -6 32 -15 32 -20 0 -9 -56 -26 -115 -35 -22 -3
-47 -8 -55 -11 -22 -7 65 -50 118 -59 23 -3 46 -13 50 -20 7 -13 14 -12 46 1
44 18 52 15 37 -13 -13 -25 -14 -52 -2 -52 5 0 26 18 47 40 21 22 44 40 51 40
8 0 13 13 13 34 0 63 27 55 64 -19 8 -16 17 -39 21 -49 4 -13 9 -16 16 -9 9 9
-31 96 -52 108 -5 4 -9 11 -9 16 0 6 12 2 28 -9 33 -24 114 -52 126 -44 5 3 0
12 -12 20 -33 22 -27 37 23 56 36 14 50 27 75 70 38 68 39 81 3 62 -36 -18
-104 -37 -113 -31 -8 5 7 55 29 94 10 19 10 25 1 31 -9 6 -11 23 -6 58 3 27 2
60 -2 73 l-9 23 -13 -24 c-17 -33 -62 -80 -76 -80 -9 0 -36 -47 -58 -100 -3
-8 -3 6 0 33 3 30 1 47 -5 47 -6 0 -11 9 -11 20 0 11 -4 20 -10 20 -5 0 -10 9
-10 20 0 11 -6 20 -14 20 -8 0 -34 27 -57 60 -23 33 -45 60 -49 60 -4 0 -11
-35 -16 -77z m251 -212 c-21 -43 -29 -39 -8 4 9 19 18 33 21 31 2 -2 -4 -18
-13 -35z m-131 -71 l6 -35 -14 35 c-8 19 -15 42 -15 50 -1 26 16 -10 23 -50z
m-40 -62 c32 -16 56 -32 53 -35 -5 -4 -144 61 -157 74 -11 11 47 -11 104 -39z
m-25 -58 c-19 -11 -150 -40 -181 -40 -44 0 -4 15 85 31 111 21 117 21 96 9z"/>
<path d="M3281 1770 c-18 -25 -35 -51 -38 -58 -3 -8 -16 -18 -29 -23 -13 -4
-24 -15 -24 -24 0 -8 -4 -15 -10 -15 -5 0 -10 -9 -10 -19 0 -11 -5 -21 -11
-23 -7 -2 -7 -12 0 -31 14 -36 14 -60 1 -52 -5 3 -10 17 -10 30 0 16 -20 43
-60 82 -33 32 -63 66 -66 76 -13 40 -26 -2 -22 -67 3 -47 0 -67 -9 -70 -10 -4
-10 -11 1 -33 32 -64 39 -83 33 -89 -4 -4 -38 4 -77 18 -70 25 -70 25 -64 4 4
-11 15 -32 25 -45 11 -13 19 -29 19 -36 0 -6 25 -24 56 -39 l56 -28 -23 -24
c-21 -22 -21 -24 -3 -24 33 0 93 25 119 50 34 32 31 20 -10 -44 -34 -54 -44
-86 -26 -86 5 0 12 12 16 28 7 31 53 102 66 102 5 0 9 -13 9 -29 0 -37 10 -62
21 -55 5 3 26 -13 47 -35 40 -42 69 -54 58 -25 -11 28 -18 64 -13 64 2 0 21
-7 40 -15 30 -12 37 -13 44 -1 4 7 25 16 46 19 46 7 128 47 121 59 -3 4 -16 8
-30 8 -35 0 -144 32 -144 42 0 5 14 11 30 15 17 3 30 12 30 20 0 8 13 32 28
52 44 57 83 121 74 121 -4 0 -32 -9 -62 -19 -30 -11 -64 -21 -75 -23 -11 -1
-35 -13 -53 -26 -50 -36 -51 -17 -2 33 34 34 40 45 26 45 -14 0 -17 5 -11 23
19 63 19 70 -2 58 -27 -14 -33 -6 -34 48 -1 25 -4 60 -8 76 l-7 30 -33 -45z
m-46 -273 c-12 -49 -28 -94 -34 -100 -7 -7 -6 6 3 33 8 25 22 71 31 104 9 32
18 57 20 55 2 -2 -7 -44 -20 -92z m-141 16 c9 -18 14 -33 12 -33 -6 0 -36 55
-36 66 0 11 5 3 24 -33z m316 -57 c0 -2 -7 -7 -16 -10 -8 -3 -12 -2 -9 4 6 10
25 14 25 6z m-276 -22 c3 -8 2 -12 -4 -9 -6 3 -10 10 -10 16 0 14 7 11 14 -7z
m221 -10 c-11 -9 -44 -27 -74 -40 -30 -13 -51 -27 -47 -31 4 -4 66 -19 139
-34 94 -19 120 -27 90 -28 -48 -1 -154 21 -229 47 l-51 18 91 42 c100 45 111
49 81 26z m-285 -29 l45 -15 -40 6 c-22 3 -47 10 -55 15 -23 13 0 10 50 -6z
m93 -22 c-7 -2 -19 -2 -25 0 -7 3 -2 5 12 5 14 0 19 -2 13 -5z"/>
<path d="M2630 1489 c-41 -27 -85 -54 -97 -60 -19 -10 -39 -38 -31 -44 5 -4
218 140 218 148 0 13 -14 6 -90 -44z"/>
<path d="M1882 1444 c-28 -19 -28 -27 1 -58 l22 -25 29 23 c29 24 29 24 10 50
-22 30 -32 31 -62 10z"/>
<path d="M1348 1214 c39 -17 42 -33 5 -31 -23 2 -29 -3 -31 -23 -2 -14 4 -34
13 -45 17 -20 17 -20 10 0 -19 54 -19 57 6 53 21 -3 24 -7 21 -43 -2 -30 0
-36 8 -25 5 8 10 32 10 53 0 26 4 37 15 37 18 0 30 -24 21 -45 -9 -24 -7 -30
12 -31 42 -3 44 -4 38 -29 -4 -14 -2 -25 4 -25 5 0 10 23 10 50 0 44 3 50 20
50 27 0 38 -30 17 -42 -15 -8 -15 -11 0 -43 9 -19 20 -35 25 -35 13 0 9 17 -7
30 -22 18 -8 31 21 18 17 -8 23 -17 18 -30 -3 -10 -1 -18 5 -18 6 0 11 21 11
50 0 38 4 50 15 50 11 0 15 -14 17 -57 1 -54 2 -55 5 -13 3 24 9 50 15 57 12
15 12 15 -95 38 -43 9 -110 28 -149 41 -78 26 -113 31 -60 8z m116 -40 c24 -9
20 -44 -4 -44 -15 0 -20 7 -20 25 0 27 1 28 24 19z m124 -52 c3 -17 -2 -22
-17 -22 -16 0 -21 6 -21 26 0 33 33 30 38 -4z"/>
<path d="M2375 1218 c-2 -7 -3 -22 -2 -32 2 -21 -20 -30 -111 -45 -58 -9 -75
1 -48 27 14 14 21 14 49 4 29 -10 30 -10 13 3 -38 28 -86 13 -86 -27 0 -14 -8
-18 -35 -19 -19 -1 -39 -3 -45 -4 -5 -1 -45 -4 -87 -6 l-78 -3 63 -3 c46 -3
62 -8 62 -18 0 -11 -11 -15 -37 -15 -29 0 -34 -3 -25 -12 7 -7 12 -18 12 -25
0 -21 -27 -15 -44 9 -9 12 -16 17 -16 10 0 -20 38 -52 55 -46 8 4 15 17 15 31
0 13 5 23 13 22 27 -3 37 2 37 21 0 11 7 20 15 20 25 0 19 -55 -7 -68 l-23
-11 23 0 c13 -1 22 -7 22 -16 0 -8 4 -15 8 -15 5 0 7 25 4 55 -4 44 -2 55 10
55 11 0 18 -16 24 -52 l8 -53 4 58 c2 41 7 57 17 57 10 0 15 -17 18 -57 l3
-58 2 56 c2 50 5 57 25 63 33 9 57 7 57 -4 0 -5 -9 -10 -20 -10 -36 0 -45 -64
-11 -85 15 -8 14 8 0 22 -15 15 -4 43 15 43 8 0 18 -16 24 -37 10 -37 10 -36
11 25 1 55 3 62 21 62 21 0 29 -33 10 -45 -12 -7 -4 -25 11 -25 5 0 9 18 9 40
0 27 4 40 14 40 15 0 26 -30 26 -72 0 -16 3 -28 8 -28 4 0 5 25 4 56 -4 50 -2
55 15 52 14 -3 17 -11 15 -36 -2 -36 2 -39 24 -17 21 21 34 19 34 -5 0 -11 4
-20 9 -20 6 0 7 23 4 54 -5 48 -3 54 15 58 28 8 35 -2 17 -22 -14 -16 -14 -19
1 -34 9 -10 24 -14 32 -11 8 3 19 0 24 -7 6 -8 8 9 5 44 -2 35 1 60 7 63 19 9
-26 -2 -118 -29 -82 -24 -91 -25 -105 -11 -15 15 -14 18 3 31 18 12 18 14 3
14 -10 0 -20 -6 -22 -12z m215 -38 c0 -18 -6 -33 -15 -37 -21 -7 -33 6 -16 17
8 4 11 15 8 23 -6 16 0 27 15 27 4 0 8 -14 8 -30z m-92 -28 c3 -17 -2 -22 -17
-22 -14 0 -21 6 -21 18 0 38 33 41 38 4z"/>
<path d="M1592 1208 c5 -15 28 -23 28 -10 0 5 -7 13 -16 16 -10 4 -14 1 -12
-6z"/>
<path d="M2108 1173 c7 -3 16 -2 19 1 4 3 -2 6 -13 5 -11 0 -14 -3 -6 -6z"/>
<path d="M3098 1166 c-30 -10 -38 -26 -14 -26 8 0 17 -13 21 -30 4 -16 11 -33
17 -37 8 -4 9 0 5 11 -17 45 -19 68 -6 77 21 13 7 16 -23 5z"/>
<path d="M926 1159 c-2 -8 -9 -28 -14 -45 -9 -29 -8 -33 15 -43 14 -7 28 -9
31 -6 4 3 -4 8 -16 12 -24 6 -27 19 -12 59 6 15 8 29 6 32 -3 3 -7 -1 -10 -9z"/>
<path d="M991 1127 c-23 -64 -22 -75 9 -86 17 -5 30 -6 30 -2 0 5 -9 11 -20
14 -11 3 -20 12 -20 21 0 12 7 15 28 11 26 -5 26 -5 5 6 -35 18 -30 42 7 34
39 -9 39 0 0 14 -28 9 -32 8 -39 -12z"/>
<path d="M597 1122 c-17 -19 -19 -104 -3 -130 4 -7 2 -12 -4 -12 -7 0 -10 -33
-8 -101 3 -107 14 -130 52 -116 13 5 16 23 16 112 0 106 0 106 -22 99 l-23 -7
23 19 c28 23 21 53 -12 55 -17 1 -18 2 -3 6 35 9 47 -15 47 -98 l0 -79 43 -27
c121 -76 387 -180 595 -232 214 -54 358 -72 602 -78 364 -9 632 27 975 129
181 54 470 185 478 216 3 10 5 -6 6 -35 1 -67 8 -83 37 -83 32 0 36 22 32 161
-3 112 -4 114 -27 117 -13 2 -28 -2 -32 -10 -6 -9 -9 -9 -9 -1 0 17 29 31 51
26 16 -4 19 0 19 25 0 33 -22 62 -46 62 -8 0 -34 -11 -57 -23 -153 -86 -413
-183 -630 -237 -187 -46 -302 -64 -512 -80 -443 -36 -986 69 -1404 271 -79 38
-149 69 -156 69 -6 0 -19 -8 -28 -18z m173 -129 l1 -38 15 28 c8 15 19 25 25
22 12 -8 -52 -126 -66 -122 -5 2 -9 24 -7 48 2 38 0 41 -10 26 -31 -45 -35
-50 -40 -41 -8 14 52 114 68 114 9 0 14 -12 14 -37z m2520 22 c0 -8 7 -35 16
-61 8 -25 13 -48 11 -50 -3 -3 -28 17 -56 45 -31 30 -47 52 -40 57 6 3 16 1
22 -5 18 -18 36 -13 30 9 -3 11 0 20 6 20 6 0 11 -7 11 -15z m84 -20 c3 -8 1
-15 -4 -15 -6 0 -10 7 -10 15 0 8 2 15 4 15 2 0 6 -7 10 -15z m36 -15 c0 -5
-5 -10 -11 -10 -5 0 -7 5 -4 10 3 6 8 10 11 10 2 0 4 -4 4 -10z m-2540 -84
c-13 -70 -25 -82 -40 -41 -8 21 -14 24 -35 19 -14 -3 -25 -3 -25 0 0 4 21 29
47 57 58 62 70 54 53 -35z m2349 70 c9 -10 8 -15 -3 -19 -8 -3 -17 -1 -19 6
-3 8 -7 5 -12 -6 -10 -23 10 -67 30 -67 8 0 15 5 15 10 0 6 -7 10 -15 10 -21
0 -19 17 5 30 16 9 22 6 35 -19 17 -34 19 -45 6 -37 -5 3 -14 -1 -21 -9 -7 -8
-21 -15 -31 -15 -22 0 -59 54 -59 86 0 39 45 59 69 30z m-2280 -27 c32 -11 43
-39 16 -39 -9 0 -24 -20 -35 -45 -19 -44 -40 -60 -40 -30 0 9 9 34 20 55 11
22 16 40 10 40 -5 0 -10 7 -10 15 0 18 -1 18 39 4z m2196 -30 c18 -23 25 -41
23 -63 -3 -27 -7 -31 -34 -34 -37 -4 -53 13 -61 62 -6 37 8 66 32 66 7 0 25
-14 40 -31z m-2125 -4 c0 -16 -51 -115 -59 -115 -15 0 -14 7 11 67 12 29 28
53 35 53 7 0 13 -2 13 -5z m64 -21 c21 -8 21 -72 0 -102 -17 -25 -56 -29 -74
-7 -15 18 -4 71 21 96 20 20 29 22 53 13z m1941 -39 c16 -39 21 -44 41 -39 17
4 24 2 24 -9 0 -8 -11 -18 -25 -21 -14 -4 -28 -7 -31 -9 -5 -2 -54 107 -54
120 0 2 6 3 14 3 8 0 22 -20 31 -45z m-56 4 c30 -32 37 -76 15 -100 -22 -25
-30 -24 -59 6 -25 24 -32 65 -19 99 9 23 40 20 63 -5z m-1808 -1 c3 -52 14
-68 23 -33 6 23 26 36 26 17 0 -16 -33 -107 -42 -117 -13 -14 -28 13 -28 55
l-1 35 -16 -37 c-8 -21 -20 -38 -25 -38 -6 0 -8 6 -5 13 2 6 13 36 23 65 17
47 43 70 45 40z m1727 -68 c25 -73 12 -88 -31 -40 l-30 34 7 -29 c4 -16 8 -32
9 -35 1 -3 -2 -7 -7 -10 -9 -5 -43 79 -45 108 -1 19 20 14 47 -10 l24 -23 -7
33 c-12 55 12 36 33 -28z m-1608 -30 c0 -53 -3 -70 -14 -70 -7 0 -16 9 -19 20
-5 20 -37 29 -37 10 0 -5 -4 -10 -10 -10 -17 0 -11 17 21 70 44 72 59 67 59
-20z m1504 6 c19 -63 20 -76 6 -76 -5 0 -12 11 -16 25 -8 33 -29 27 -29 -8 -1
-14 -4 -29 -8 -33 -9 -9 -34 52 -39 93 -3 36 15 51 20 16 2 -13 10 -23 18 -23
10 0 15 8 14 23 -5 59 15 49 34 -17z m-1434 36 c0 -5 -6 -29 -14 -55 -13 -42
-12 -46 5 -50 34 -9 22 -30 -13 -23 -17 3 -33 7 -34 9 -8 8 32 127 43 127 7 0
13 -4 13 -8z m1324 -34 c13 -21 0 -36 -16 -20 -7 7 -16 12 -20 12 -9 0 -11
-41 -2 -64 8 -20 34 -21 34 -1 0 8 7 15 15 15 21 0 19 -24 -4 -44 -37 -33 -81
6 -81 72 0 50 49 69 74 30z m-1208 -5 c-3 -10 -10 -39 -17 -65 -7 -30 -17 -48
-26 -48 -8 0 -12 3 -10 8 3 4 10 33 17 65 8 39 16 57 26 57 10 0 13 -6 10 -17z
m60 -30 l7 -38 6 29 c3 16 12 31 20 34 10 3 12 -2 8 -19 -3 -13 -9 -43 -13
-66 -9 -60 -44 -54 -44 8 0 29 -18 23 -22 -8 -2 -14 -9 -28 -16 -31 -13 -4
-13 3 9 91 6 20 16 37 23 37 8 0 17 -17 22 -37z m1054 26 c0 -6 -9 -13 -20
-16 -11 -3 -20 -9 -20 -14 0 -5 9 -9 20 -9 11 0 20 -7 20 -15 0 -8 -7 -15 -15
-15 -8 0 -15 -7 -15 -15 0 -11 7 -14 25 -9 18 4 25 2 25 -9 0 -14 -54 -32 -70
-22 -4 3 -11 26 -15 51 -3 26 -9 52 -12 59 -5 14 14 22 55 24 12 0 22 -4 22
-10z m-95 -26 c-9 -21 -9 -16 -1 -70 5 -34 3 -43 -8 -43 -10 0 -17 16 -22 46
-3 25 -13 48 -20 51 -26 10 -14 32 19 35 40 4 41 3 32 -19z m-851 11 c9 -3 16
-12 16 -20 0 -10 -8 -13 -27 -9 l-28 6 28 -21 c47 -37 27 -100 -28 -86 -16 4
-25 13 -25 26 0 11 5 20 10 20 6 0 10 -4 10 -10 0 -5 7 -10 15 -10 21 0 19 17
-5 30 -22 12 -27 49 -8 68 14 14 20 14 42 6z m116 -21 c3 -2 -3 -11 -14 -18
-11 -9 -20 -31 -23 -59 -4 -30 -10 -46 -19 -46 -11 0 -13 12 -8 55 5 38 3 55
-5 55 -6 0 -11 7 -11 16 0 13 7 15 38 9 20 -4 39 -9 42 -12z m620 2 c0 -8 -9
-15 -20 -15 -11 0 -20 -7 -20 -15 0 -8 9 -15 20 -15 11 0 20 -7 20 -15 0 -8
-7 -15 -15 -15 -9 0 -15 -9 -15 -25 0 -40 -27 -30 -34 13 -11 70 -8 90 17 95
41 8 47 7 47 -8z m-590 -49 c0 -58 -7 -86 -21 -86 -10 0 -12 83 -3 118 11 40
24 23 24 -32z m71 44 c10 0 19 -7 19 -15 0 -8 -7 -15 -15 -15 -11 0 -15 -12
-15 -50 0 -39 -4 -50 -16 -50 -13 0 -14 9 -9 55 6 47 5 55 -9 55 -9 0 -16 4
-16 8 0 15 13 23 28 17 7 -3 22 -5 33 -5z m413 -6 c39 -38 30 -116 -14 -122
-31 -5 -50 21 -50 69 0 35 20 69 40 69 5 0 16 -7 24 -16z m-354 -49 c0 -41 4
-55 14 -55 11 0 16 15 18 52 4 65 28 80 28 16 0 -64 -9 -87 -36 -94 -39 -10
-54 11 -54 77 0 46 3 59 15 59 12 0 15 -13 15 -55z m140 40 c0 -8 -4 -15 -10
-15 -5 0 -10 -25 -10 -55 0 -42 -3 -55 -15 -55 -12 0 -15 13 -15 55 0 30 -4
55 -10 55 -5 0 -10 7 -10 15 0 10 11 15 35 15 24 0 35 -5 35 -15z m90 0 c0 -9
-9 -15 -25 -15 -14 0 -25 -4 -25 -10 0 -5 9 -10 20 -10 11 0 20 -6 20 -14 0
-7 -9 -16 -20 -19 -31 -8 -24 -27 11 -27 44 0 32 -24 -14 -28 l-37 -3 0 70 0
71 35 0 c24 0 35 -5 35 -15z"/>
<path d="M837 923 c-4 -3 -7 -11 -7 -17 0 -6 5 -5 12 2 6 6 9 14 7 17 -3 3 -9
2 -12 -2z"/>
<path d="M3085 883 c12 -50 45 -73 45 -32 0 29 -18 59 -36 59 -13 0 -15 -6 -9
-27z"/>
<path d="M1032 835 c-14 -31 -15 -55 -3 -55 13 0 29 22 36 53 9 36 -17 37 -33
2z"/>
<path d="M2915 830 c-8 -13 16 -62 33 -68 14 -4 16 17 2 52 -10 27 -24 33 -35
16z"/>
<path d="M1231 754 c0 -11 3 -14 6 -6 3 7 2 16 -1 19 -3 4 -6 -2 -5 -13z"/>
<path d="M2215 670 c-9 -27 3 -60 21 -60 8 0 14 10 14 24 0 51 -23 74 -35 36z"/>
<path d="M3042 1123 c8 -33 -36 -48 -46 -15 -3 9 -3 -1 -1 -22 2 -22 9 -44 15
-50 8 -8 10 -4 5 15 -5 21 -2 27 15 32 16 4 24 1 27 -14 3 -10 9 -19 13 -19 9
0 -12 75 -24 87 -5 4 -7 -2 -4 -14z"/>
<path d="M1743 1123 c18 -5 25 -53 7 -53 -5 0 -10 -7 -10 -15 0 -16 16 -20 24
-6 11 18 45 -1 49 -28 2 -14 5 0 6 32 1 43 5 57 16 57 11 0 15 -14 17 -57 l2
-58 3 50 c3 27 9 55 14 61 6 8 -6 13 -43 18 -60 7 -113 6 -85 -1z m51 -9 c24
-9 20 -44 -4 -44 -15 0 -20 7 -20 25 0 27 1 28 24 19z"/>
<path d="M1090 1106 c0 -3 5 -17 10 -31 8 -21 7 -26 -2 -22 -7 2 -12 13 -10
23 2 16 -1 15 -17 -6 -27 -33 -26 -38 4 -32 19 3 27 -1 34 -19 l10 -24 0 26
c1 39 -10 89 -20 89 -5 0 -9 -2 -9 -4z"/>
<path d="M2916 1094 c-32 -31 -15 -94 25 -94 24 0 49 27 43 45 -7 17 -30 20
-39 5 -3 -6 1 -7 9 -4 10 4 16 1 16 -9 0 -20 -29 -30 -47 -16 -8 7 -13 24 -11
38 2 21 8 26 31 26 30 -1 36 9 11 19 -21 8 -20 8 -38 -10z"/>
<path d="M1143 1045 c-9 -40 -8 -47 8 -55 29 -16 45 -12 57 15 17 37 15 52
-10 69 -35 25 -44 20 -55 -29z m61 8 c9 -22 -20 -64 -39 -57 -17 7 -19 23 -5
58 10 27 34 27 44 -1z"/>
<path d="M2866 1050 c10 -54 26 -83 18 -35 -3 22 -10 47 -15 55 -7 10 -8 4 -3
-20z"/>
<path d="M2790 1049 c0 -20 23 -89 29 -88 3 0 15 4 26 9 19 8 19 9 -1 9 -22 1
-34 19 -34 51 0 10 -4 22 -10 25 -5 3 -10 1 -10 -6z"/>
<path d="M1266 1009 c-4 -23 -4 -44 -1 -47 3 -3 5 5 5 17 0 12 6 24 14 27 8 3
12 13 9 25 -9 31 -20 22 -27 -22z"/>
<path d="M1333 1023 c-3 -10 -8 -22 -11 -27 -3 -5 1 -6 8 -1 9 6 10 0 5 -26
-4 -19 -5 -32 -2 -29 12 11 25 90 16 96 -5 3 -12 -3 -16 -13z"/>
<path d="M2686 1027 c-22 -16 -18 -75 7 -91 25 -16 51 4 55 45 3 30 -15 59
-38 59 -3 0 -14 -6 -24 -13z m54 -48 c0 -27 -27 -44 -45 -29 -20 17 -19 57 3
69 19 11 42 -10 42 -40z"/>
<path d="M1375 1018 c-2 -7 -6 -30 -10 -50 -5 -34 -4 -38 20 -44 14 -3 29 -4
32 0 4 3 -3 6 -15 6 -11 0 -23 4 -26 8 -9 14 12 35 28 29 9 -4 16 -2 16 3 0 6
-9 10 -20 10 -32 0 -24 30 8 31 24 0 25 1 7 9 -28 12 -35 12 -40 -2z"/>
<path d="M2605 1010 c-17 -7 -17 -9 -2 -9 13 -1 17 -10 17 -35 0 -19 4 -37 9
-40 5 -4 7 12 4 35 -4 29 -2 44 8 50 12 7 12 9 -1 8 -8 0 -24 -4 -35 -9z"/>
<path d="M1291 978 c-1 -30 13 -38 23 -12 3 8 2 12 -3 9 -5 -3 -12 3 -14 12
-3 11 -5 8 -6 -9z"/>
<path d="M1485 959 c-4 -22 -4 -43 -1 -46 3 -4 6 1 6 10 0 11 8 17 23 17 20 1
21 2 5 14 -28 20 -23 39 8 32 17 -5 23 -3 19 4 -3 5 -17 10 -30 10 -19 0 -24
-7 -30 -41z"/>
<path d="M2494 986 c-22 -17 -12 -43 18 -48 35 -5 30 -33 -6 -31 -20 2 -26 -1
-19 -8 6 -6 21 -9 34 -7 34 4 34 50 0 58 -35 8 -42 34 -7 28 27 -5 36 6 12 15
-8 3 -22 0 -32 -7z"/>
<path d="M1566 978 c-11 -34 -14 -88 -5 -88 5 0 9 9 9 20 0 28 14 25 40 -7 18
-24 19 -24 10 -4 -9 17 -9 26 -1 34 18 18 12 44 -11 51 -33 8 -38 8 -42 -6z
m38 -4 c25 -10 19 -34 -9 -34 -24 0 -34 18 -18 33 8 8 8 8 27 1z"/>
<path d="M2403 964 c-7 -18 19 -44 44 -44 7 0 13 -5 13 -10 0 -18 -29 -23 -47
-9 -14 12 -16 12 -11 -1 3 -9 17 -15 34 -15 23 0 30 5 32 23 3 18 -2 23 -27
28 -32 7 -39 18 -21 29 6 4 18 1 27 -7 14 -11 16 -11 11 2 -7 22 -47 25 -55 4z"/>
<path d="M1649 944 c-13 -36 -3 -63 28 -70 30 -8 53 15 53 51 0 49 -63 64 -81
19z m66 -4 c8 -26 -12 -62 -33 -58 -18 3 -28 39 -18 64 8 21 44 17 51 -6z"/>
<path d="M1746 948 c-3 -13 -6 -36 -5 -53 0 -28 1 -27 15 14 10 27 12 47 6 53
-6 6 -12 1 -16 -14z"/>
<path d="M2320 920 l0 -50 33 1 c30 2 30 2 5 6 -16 2 -28 10 -28 17 0 7 12 17
28 24 26 11 26 11 2 9 -37 -3 -40 30 -3 36 27 4 27 4 -4 6 l-33 1 0 -50z"/>
<path d="M1803 923 c-14 -34 -17 -36 -24 -18 l-8 20 0 -20 c-1 -41 15 -48 30
-13 l14 33 6 -35 c6 -31 7 -29 8 18 0 28 -1 52 -5 52 -3 0 -12 -17 -21 -37z"/>
<path d="M1886 952 c-3 -3 -6 -27 -6 -54 0 -44 2 -48 24 -48 46 0 71 47 44 82
-14 17 -53 29 -62 20z m49 -52 c0 -25 -5 -36 -18 -38 -21 -4 -31 19 -23 54 10
40 41 28 41 -16z"/>
<path d="M2182 933 c-21 -27 -21 -27 -22 -5 0 12 -5 22 -10 22 -7 0 -9 -17 -6
-47 7 -52 16 -70 16 -30 0 32 10 35 28 7 7 -11 17 -20 23 -20 6 0 1 12 -10 27
-20 24 -20 27 -5 45 10 10 15 21 12 24 -3 3 -15 -8 -26 -23z"/>
<path d="M2231 910 l2 -55 7 45 c4 25 4 49 -1 55 -5 5 -8 -13 -8 -45z"/>
<path d="M2287 930 c6 -34 -3 -39 -23 -12 -7 9 -13 13 -14 7 0 -5 11 -23 25
-40 l24 -30 1 53 c0 28 -4 52 -10 52 -5 0 -7 -13 -3 -30z"/>
<path d="M1991 927 c-6 -15 -12 -38 -14 -50 -2 -12 -2 -16 0 -9 7 18 40 15 52
-5 18 -32 12 8 -8 52 l-19 40 -11 -28z m17 -36 c-15 -5 -19 4 -11 24 6 18 7
18 13 -1 4 -10 3 -21 -2 -23z"/>
<path d="M2061 898 c1 -29 4 -43 6 -30 5 28 29 29 43 1 7 -11 14 -18 17 -15 3
3 0 12 -7 21 -10 12 -10 18 0 30 19 23 4 45 -30 45 -30 0 -30 0 -29 -52z m49
27 c0 -8 -9 -15 -20 -15 -11 0 -20 7 -20 15 0 8 9 15 20 15 11 0 20 -7 20 -15z"/>
<path d="M410 760 c-11 -11 -20 -31 -20 -45 0 -22 3 -25 25 -19 26 6 55 -9 55
-30 0 -6 -5 -3 -11 7 -12 20 -42 23 -57 5 -15 -19 -16 -246 -1 -264 28 -34 69
-1 69 55 l0 38 113 -58 c347 -177 774 -292 1200 -323 l77 -6 0 79 c0 43 -3
105 -6 138 l-7 60 -56 2 c-375 14 -901 159 -1290 355 -61 31 -65 32 -91 6z
m221 -117 c28 -17 42 -63 19 -63 -5 0 -10 8 -10 18 0 10 -5 23 -12 30 -15 15
-48 16 -48 1 0 -6 14 -27 30 -46 36 -41 37 -48 6 -68 -20 -14 -29 -14 -48 -4
-45 24 -63 59 -38 74 6 3 10 -3 10 -14 0 -25 26 -51 51 -51 27 0 24 32 -6 60
-27 26 -32 49 -13 68 16 16 25 15 59 -5z m-188 -20 c-7 -2 -19 -2 -25 0 -7 3
-2 5 12 5 14 0 19 -2 13 -5z m336 -51 c45 -22 59 -45 42 -66 -8 -9 -22 -16
-33 -16 -21 0 -22 -19 -3 -63 5 -13 3 -16 -8 -11 -8 3 -20 25 -27 50 -7 24
-16 44 -21 44 -11 0 -22 -38 -14 -50 7 -11 -5 -13 -28 -4 -12 4 -9 15 15 59
16 30 27 59 23 65 -9 15 15 11 54 -8z m146 -62 c3 -5 2 -10 -3 -10 -10 0 -45
-85 -45 -107 0 -15 -16 -17 -37 -3 -13 8 -13 10 1 10 10 0 22 20 35 60 18 56
35 73 49 50z m83 -29 c8 -4 19 -32 26 -62 13 -54 13 -54 24 -26 7 16 12 37 12
49 0 14 5 18 16 14 9 -3 19 -6 22 -6 4 0 0 -5 -8 -10 -8 -5 -22 -33 -30 -61
-9 -29 -20 -54 -26 -56 -7 -2 -17 26 -26 69 l-14 73 -18 -52 c-9 -29 -14 -58
-10 -64 5 -9 2 -10 -10 -6 -10 4 -23 7 -29 7 -7 1 -5 6 4 13 18 14 51 105 43
118 -7 11 7 11 24 0z m217 -123 c3 -35 9 -71 11 -80 4 -12 0 -15 -15 -11 -16
4 -19 11 -15 29 5 19 1 26 -17 33 -26 10 -49 -2 -49 -25 0 -8 -7 -14 -15 -14
-8 0 -15 2 -15 5 0 10 92 125 100 125 4 0 11 -28 15 -62z m183 16 c15 -5 22
-14 22 -32 l0 -25 -21 27 c-25 31 -38 33 -67 6 -27 -26 -28 -64 -2 -90 24 -24
34 -25 55 -4 12 12 13 19 4 30 -9 11 -7 14 15 14 26 0 35 -13 16 -25 -5 -3
-10 -14 -10 -24 0 -26 -61 -26 -94 0 -32 25 -34 66 -5 103 20 26 44 31 87 20z
m172 -52 c0 -10 6 -42 14 -72 8 -30 13 -56 12 -58 -2 -1 -14 2 -27 7 -13 5
-18 10 -11 10 19 1 14 29 -7 41 -30 15 -40 12 -47 -15 -3 -14 -13 -25 -21 -25
-17 0 -18 -2 25 73 33 56 62 74 62 39z m201 -8 c18 -11 10 -56 -11 -61 -11 -3
-20 -9 -20 -13 0 -4 9 -19 20 -33 24 -30 25 -38 5 -31 -8 3 -24 21 -36 40 -27
44 -42 44 -37 -1 3 -28 1 -35 -13 -35 -20 0 -34 16 -19 22 5 1 10 32 12 67 l2
63 44 -6 c24 -3 48 -8 53 -12z"/>
<path d="M739 548 c-13 -24 1 -38 39 -38 18 0 23 5 20 21 -2 12 -13 26 -25 30
-18 6 -25 4 -34 -13z"/>
<path d="M1182 373 c-9 -16 -9 -24 -1 -29 16 -10 28 8 19 31 -7 19 -7 19 -18
-2z"/>
<path d="M1542 295 c-10 -22 -9 -25 7 -25 14 0 17 6 13 25 -2 14 -5 25 -7 25
-1 0 -7 -11 -13 -25z"/>
<path d="M1707 290 c-6 -23 10 -34 40 -28 29 5 23 42 -8 46 -20 2 -28 -2 -32
-18z"/>
<path d="M3483 735 c-170 -80 -438 -174 -638 -224 -170 -42 -367 -73 -627 -96
l-68 -7 0 -143 c0 -79 4 -146 8 -149 14 -9 235 14 392 40 288 49 577 140 847
269 l132 63 4 69 c2 55 3 49 5 -33 2 -109 12 -132 52 -119 18 6 20 15 22 101
0 52 1 100 2 107 1 6 -5 11 -13 9 -8 -2 -27 0 -42 3 -21 5 -29 13 -29 28 l0
21 16 -22 c16 -23 48 -30 59 -12 3 5 6 30 7 56 0 35 -4 51 -18 61 -24 17 -28
17 -111 -22z m116 -39 c-2 -2 -17 -6 -34 -10 -22 -5 -26 -4 -15 4 14 9 59 15
49 6z m-225 -102 c20 -19 20 -29 1 -48 -21 -20 -20 -21 26 -36 31 -10 37 -16
25 -22 -10 -6 -29 -2 -55 12 -22 11 -43 20 -46 20 -11 0 -4 -30 12 -45 14 -14
14 -18 2 -26 -22 -14 -24 -12 -37 36 -6 25 -20 53 -30 62 -18 17 -17 19 22 40
49 27 60 28 80 7z m-177 -66 c0 -7 9 -33 20 -58 27 -62 27 -63 3 -72 -14 -5
-19 -4 -14 3 9 14 -27 119 -41 119 -5 0 -3 5 5 10 20 13 27 12 27 -2z m-72
-125 c4 -13 12 -23 19 -23 10 0 -13 -20 -24 -20 -3 0 -12 21 -20 48 l-14 47
-5 -55 c-4 -30 -10 -54 -15 -54 -5 1 -24 21 -42 44 -19 24 -34 39 -34 35 0
-21 24 -85 32 -85 5 0 6 -4 3 -10 -3 -5 -13 -10 -21 -10 -8 0 -13 4 -10 8 7
12 -24 112 -35 112 -17 0 -9 18 9 22 13 4 30 -8 55 -40 l37 -45 0 56 c0 43 4
58 17 66 15 8 19 3 29 -32 7 -23 15 -52 19 -64z m-211 -73 c15 -31 12 -40 -14
-40 -13 0 -16 7 -12 32 5 31 4 31 -29 24 -45 -9 -51 -17 -35 -48 13 -24 12
-26 -10 -31 -13 -2 -21 0 -18 5 8 12 -17 118 -28 118 -5 0 -6 5 -3 10 3 6 14
10 24 10 14 0 17 -6 14 -24 -6 -30 6 -37 43 -27 21 6 28 13 26 27 -2 10 -8 21
-13 22 -15 6 -10 20 9 24 13 3 19 -6 24 -35 4 -21 14 -51 22 -67z m-214 46 c0
-2 3 -12 6 -20 6 -14 2 -14 -25 1 -29 17 -31 17 -48 0 -16 -15 -16 -19 -3 -27
8 -5 29 -10 46 -10 55 0 74 -47 30 -75 -34 -23 -80 -15 -84 15 -4 22 -3 22 13
6 24 -23 70 -18 70 9 0 14 -8 21 -25 23 -73 8 -90 24 -64 61 11 14 26 21 50
21 19 0 34 -2 34 -4z m-175 -86 c14 -27 29 -51 35 -55 17 -10 11 -25 -9 -25
-13 0 -21 8 -23 22 -2 13 -11 24 -22 26 -25 5 -50 -26 -36 -43 8 -9 5 -14 -10
-18 -23 -6 -24 -2 -10 39 5 16 14 48 20 72 6 23 15 40 21 37 5 -4 20 -28 34
-55z m-170 13 c-33 -36 -32 -45 10 -82 20 -18 29 -31 21 -31 -8 0 -22 -3 -30
-6 -11 -4 -15 -2 -11 8 8 21 -32 55 -47 40 -10 -10 -10 -17 0 -32 11 -18 10
-20 -15 -19 -16 0 -23 3 -16 5 14 6 5 116 -11 126 -6 4 0 8 15 8 23 0 25 -3
21 -30 -2 -16 0 -30 4 -30 14 1 46 49 39 60 -4 6 5 10 20 10 l26 0 -26 -27z"/>
<path d="M3313 580 c-25 -10 -27 -17 -14 -39 6 -9 18 -11 35 -7 19 5 26 13 26
31 0 26 -11 30 -47 15z"/>
<path d="M2480 291 c0 -12 6 -21 15 -21 8 0 15 4 15 9 0 5 -7 14 -15 21 -13
10 -15 9 -15 -9z"/>
</g>
</svg>
